<svg xmlns="http://www.w3.org/2000/svg" viewBox="0 0 566.22 342.33"><defs><style>.cls-1{fill:#d33737;}.cls-2{font-size:55px;fill:#fff;font-family:Raleway-ExtraBold, Raleway;font-weight:700;}.cls-3{letter-spacing:-0.03em;}.cls-4{fill:#f3f8fb;}.cls-5{fill:#b52c2c;}.cls-6{fill:#ff8a19;}</style></defs><title>Element 1</title><g id="Ebene_2" data-name="Ebene 2"><g id="Ńëîé_1" data-name="Ńëîé 1"><rect class="cls-1" width="566.22" height="342.33"/><text class="cls-2" transform="translate(213.63 99.15)">Sorr<tspan class="cls-3" x="111.37" y="0">y</tspan></text><rect class="cls-4" y="220.44" width="458.67" height="21"/><path class="cls-4" d="M494.17,269.94h-4a39,39,0,0,1-39-39h0a39,39,0,0,1,39-39h4Z"/><path class="cls-4" d="M545.17,212.94h-37a8,8,0,0,1-8-8h0a8,8,0,0,1,8-8h37a8,8,0,0,1,8,8h0A8,8,0,0,1,545.17,212.94Z"/><path class="cls-4" d="M545.17,262.94h-37a8,8,0,0,1-8-8h0a8,8,0,0,1,8-8h37a8,8,0,0,1,8,8h0A8,8,0,0,1,545.17,262.94Z"/><polygon class="cls-5" points="238.43 218 225.66 227.16 232.96 230.72 223.2 234.43 232.96 237.66 219.39 243.44 334.03 243.44 328.52 238.46 334.03 233.62 328.52 230.72 334.03 225.54 322.24 222.31 334.03 218 238.43 218"/><polygon class="cls-6" points="236.52 212.94 229.33 204.94 232.96 200.67 236.52 212.94"/><polygon class="cls-6" points="260.95 224.67 268.17 200.67 278.54 206.81 260.95 224.67"/><polygon class="cls-6" points="252.95 238.67 265.11 258 259.03 262.94 252.95 238.67"/><polygon class="cls-6" points="312.37 221.35 291.56 208.93 297.69 201.33 312.37 221.35"/><polygon class="cls-6" points="286.67 263.9 306.58 242.03 296.03 265.64 286.67 263.9"/><polygon class="cls-6" points="303.39 230.38 296.76 241.44 293.21 235.39 303.39 230.38"/><polygon class="cls-6" points="277.4 250.41 267.09 238.87 281.2 243.89 277.4 250.41"/><polygon class="cls-6" points="322.24 238.67 319.17 250.81 325.33 250.81 322.24 238.67"/><polygon class="cls-6" points="236.52 241.44 246.64 254.94 236.52 255.69 236.52 241.44"/><polygon class="cls-6" points="242.88 222.78 249.88 224.67 242.88 226.55 241 233.55 239.11 226.55 232.12 224.67 239.11 222.78 241 215.79 242.88 222.78"/><polygon class="cls-6" points="325.4 260.32 330.38 261.67 325.4 263.01 324.06 267.99 322.71 263.01 317.73 261.67 322.71 260.32 324.06 255.34 325.4 260.32"/><polygon class="cls-6" points="288.68 216.66 293.66 218 288.68 219.34 287.33 224.32 285.99 219.34 281.01 218 285.99 216.66 287.33 211.68 288.68 216.66"/></g></g></svg>