<svg id="Ebene_1" data-name="Ebene 1" xmlns="http://www.w3.org/2000/svg" viewBox="0 0 747.32 373.58"><defs><style>.cls-1{fill:#fce8cb;}.cls-2{fill:#3a312a;}.cls-3{fill:#87796f;}.cls-4{fill:#f16c7a;}.cls-5{fill:#d7e057;}.cls-6{fill:#8ac6dd;}.cls-7{fill:#695b51;}.cls-8{fill:#decaad;}.cls-14,.cls-9{fill:none;}.cls-10,.cls-9{stroke:#3a312a;stroke-width:6px;}.cls-10,.cls-11,.cls-14,.cls-9{stroke-linecap:round;}.cls-10,.cls-11,.cls-13,.cls-14,.cls-9{stroke-miterlimit:10;}.cls-10{fill:#c64922;}.cls-11,.cls-12,.cls-13{fill:#fff;}.cls-11,.cls-13,.cls-14{stroke:#1fa7dd;}.cls-11{stroke-width:3px;}.cls-13,.cls-14{stroke-width:2px;}</style></defs><title>Outdated</title><path class="cls-1" d="M116.19,156.1V417.85c0,14.69,16.14,26.59,36.05,26.59H596c19.91,0,36-11.9,36-26.59V156.1Z" transform="translate(-25.18 -84.92)"/><path class="cls-2" d="M632,153.54H116.19c-1.92,0-3.47,1.15-3.47,2.56v93.57c0,1.41,1.55,2.56,3.47,2.56s3.47-1.15,3.47-2.56v-91H628.53V417.85c0,13.25-14.62,24-32.58,24H152.24c-18,0-32.58-10.78-32.58-24V275.24c0-1.42-1.55-2.56-3.47-2.56s-3.47,1.14-3.47,2.56V417.85c0,16.08,17.73,29.15,39.52,29.15H596c21.79,0,39.52-13.07,39.52-29.15V156.1C635.47,154.69,633.91,153.54,632,153.54Z" transform="translate(-25.18 -84.92)"/><path class="cls-3" d="M594.41,88.39H153.78A37.59,37.59,0,0,0,116.19,126v31H632V126A37.59,37.59,0,0,0,594.41,88.39Z" transform="translate(-25.18 -84.92)"/><path class="cls-2" d="M594.41,84.92H310.21a3.47,3.47,0,1,0,0,6.94h284.2A34.16,34.16,0,0,1,628.53,126v27.56H119.66V126a34.16,34.16,0,0,1,34.12-34.12H276.07a3.47,3.47,0,0,0,0-6.94H153.78A41.11,41.11,0,0,0,112.72,126v31a3.47,3.47,0,0,0,3.47,3.47H632a3.47,3.47,0,0,0,3.47-3.47V126A41.11,41.11,0,0,0,594.41,84.92Z" transform="translate(-25.18 -84.92)"/><circle class="cls-4" cx="427.56" cy="38.16" r="15.61"/><path class="cls-2" d="M452.74,104a19.08,19.08,0,1,0,19.08,19.08A19.1,19.1,0,0,0,452.74,104Zm0,31.22a12.14,12.14,0,1,1,12.14-12.14A12.15,12.15,0,0,1,452.74,135.23Z" transform="translate(-25.18 -84.92)"/><circle class="cls-5" cx="492.9" cy="38.16" r="15.61"/><path class="cls-2" d="M518.08,104a19.08,19.08,0,1,0,19.08,19.08A19.1,19.1,0,0,0,518.08,104Zm0,31.22a12.14,12.14,0,1,1,12.14-12.14A12.15,12.15,0,0,1,518.08,135.23Z" transform="translate(-25.18 -84.92)"/><circle class="cls-6" cx="558.24" cy="38.16" r="15.61"/><path class="cls-2" d="M583.42,104a19.08,19.08,0,1,0,19.08,19.08A19.1,19.1,0,0,0,583.42,104Zm0,31.22a12.14,12.14,0,1,1,12.15-12.14A12.15,12.15,0,0,1,583.42,135.23Z" transform="translate(-25.18 -84.92)"/><path class="cls-7" d="M594.41,91.87h-34.7a34,34,0,0,1,26.21,12.31,19.08,19.08,0,0,1,7.91,34.9v14.46h34.7V126A34.16,34.16,0,0,0,594.41,91.87Z" transform="translate(-25.18 -84.92)"/><path class="cls-8" d="M593.83,158.66V417.85c0,13.26-14.62,24-32.57,24H596c17.95,0,32.57-10.77,32.57-24V158.66Z" transform="translate(-25.18 -84.92)"/><path class="cls-9" d="M279.56,247.5c-2,10-10.43,17.5-20.56,17.5-10.46,0-19.13-8-20.73-18.49" transform="translate(-25.18 -84.92)"/><path class="cls-9" d="M462.56,247.5c-2,10-10.43,17.5-20.56,17.5-10.46,0-19.13-8-20.73-18.49" transform="translate(-25.18 -84.92)"/><circle class="cls-10" cx="318.82" cy="262.08" r="27"/><path class="cls-11" d="M724.14,439.7c-6.09-48.53-42.7-85.18-85.4-83.51-30,1.17-55.57,21-68.89,49.64a89.64,89.64,0,0,0-60.28,1.22C493,381.43,467.27,365.37,439,366.47c-33.08,1.29-60.84,25.72-73.7,60.33-1.16,0-2.33,0-3.5,0A65.52,65.52,0,0,0,327,438.58C314.21,422,296,412,276.16,412.72a54.86,54.86,0,0,0-18.94,4.2c-17.11-27.56-46.94-45.27-80.18-44a87.36,87.36,0,0,0-50.56,18.64c-11.17-13.11-24.93-19.87-39.57-20.12-9-.15-38.79,6-44.33,69.28" transform="translate(-25.18 -84.92)"/><polygon class="cls-12" points="614.32 355.08 613.82 334.08 368.82 355.08 93.32 355.08 93.32 373.58 614.32 373.58 614.32 355.08"/><circle class="cls-13" cx="35.82" cy="77.08" r="17"/><circle class="cls-13" cx="32.82" cy="161.08" r="7.5"/><circle class="cls-13" cx="654.32" cy="107.58" r="14"/><circle class="cls-13" cx="719.82" cy="243.08" r="26.5"/><line class="cls-14" x1="45.32" y1="210.58" x2="62.32" y2="193.58"/><line class="cls-14" x1="62.32" y1="210.58" x2="45.32" y2="193.58"/><line class="cls-14" x1="632.8" y1="157.08" x2="656.84" y2="157.08"/><line class="cls-14" x1="644.82" y1="169.1" x2="644.82" y2="145.06"/><line class="cls-14" x1="1" y1="47.25" x2="11.62" y2="57.88"/><line class="cls-14" x1="1" y1="57.88" x2="11.62" y2="47.25"/><line class="cls-14" x1="693" y1="280.25" x2="703.62" y2="290.88"/><line class="cls-14" x1="693" y1="290.88" x2="703.62" y2="280.25"/><circle class="cls-13" cx="703.32" cy="44.58" r="9.5"/><line class="cls-14" x1="68.81" y1="101.06" x2="68.81" y2="111.08"/><line class="cls-14" x1="63.8" y1="106.07" x2="73.82" y2="106.07"/></svg>