<?xml version="1.0" standalone="no"?>
<!DOCTYPE svg PUBLIC "-//W3C//DTD SVG 20010904//EN"
 "http://www.w3.org/TR/2001/REC-SVG-20010904/DTD/svg10.dtd">
<svg version="1.0" xmlns="http://www.w3.org/2000/svg"
 width="5251.000000pt" height="5251.000000pt" viewBox="0 0 5251.000000 5251.000000"
 preserveAspectRatio="xMidYMid meet">
<metadata>
Created by potrace 1.11, written by Peter Selinger 2001-2013
</metadata>
<g transform="translate(0.000000,5251.000000) scale(0.100000,-0.100000)"
fill="#000000" stroke="none">
<path d="M24984 48349 c-63 -15 -145 -69 -184 -121 -19 -26 -95 -177 -169
-335 -272 -584 -753 -1535 -1015 -2008 -16 -27 -43 -77 -61 -110 -56 -103
-479 -864 -550 -990 -37 -66 -108 -192 -158 -280 -49 -88 -112 -200 -140 -250
-28 -49 -67 -119 -87 -155 -20 -36 -150 -267 -290 -515 -530 -942 -637 -1136
-1210 -2180 -312 -570 -565 -1027 -693 -1255 -241 -429 -363 -640 -429 -743
-100 -156 -128 -219 -128 -291 0 -94 49 -170 164 -252 l29 -21 -44 -12 c-24
-6 -174 -53 -334 -104 l-290 -93 -3 -135 c-8 -349 77 -657 256 -929 60 -91
232 -271 321 -336 l55 -40 1 -439 c2 -524 20 -1276 35 -1430 23 -239 51 -397
100 -555 51 -165 88 -335 101 -458 15 -146 2 -268 -42 -392 -60 -168 -71 -206
-76 -275 -6 -86 12 -170 68 -309 l41 -101 -6 -245 c-4 -135 -15 -623 -26
-1085 -11 -462 -25 -1045 -31 -1295 -16 -628 -17 -1487 -1 -1740 41 -680 39
-828 -38 -2535 -35 -792 -41 -871 -67 -922 -49 -95 -118 -104 -334 -41 l-145
43 -37 50 c-20 27 -66 86 -102 130 -88 108 -109 152 -113 246 -3 64 0 86 23
143 21 54 25 72 17 95 -26 73 -121 185 -169 197 -13 4 -52 4 -86 2 -137 -9
-246 -94 -322 -253 -67 -140 -90 -279 -74 -436 19 -187 78 -296 263 -483 101
-102 414 -387 509 -462 21 -17 51 -53 67 -80 l28 -50 -101 -33 c-56 -19 -123
-44 -148 -57 -81 -40 -89 -57 -152 -310 -189 -762 -221 -1230 -110 -1614 100
-348 251 -534 703 -869 159 -117 357 -266 398 -299 l23 -18 -11 -170 c-7 -93
-14 -170 -15 -172 -2 -2 -114 9 -249 23 -135 14 -250 23 -256 20 -26 -16 -8
-41 43 -59 28 -10 112 -41 186 -69 l133 -51 -86 -43 c-83 -42 -87 -43 -133
-32 -76 18 -221 16 -267 -5 -62 -26 -99 -59 -129 -115 -40 -72 -55 -161 -66
-382 -7 -136 -21 -258 -46 -408 -20 -118 -37 -217 -40 -219 -7 -7 -105 9 -105
18 0 70 84 1096 96 1175 8 54 15 64 89 147 35 39 62 74 60 78 -8 13 -182 41
-208 35 -61 -16 -87 -82 -111 -285 -43 -356 -68 -712 -69 -1025 -2 -264 5
-326 46 -414 23 -50 53 -67 182 -101 92 -24 88 -24 305 -45 197 -19 210 -21
210 -40 0 -12 17 -15 85 -15 l85 0 0 -40 0 -40 80 0 80 0 0 -45 0 -45 38 0 39
0 6 -497 c4 -273 7 -1202 7 -2065 l0 -1568 28 0 28 0 18 163 c24 231 13 207
104 206 42 -1 205 -6 362 -12 284 -12 285 -12 288 -35 3 -20 -1 -22 -37 -22
l-41 0 0 -49 0 -49 -67 -37 c-38 -21 -147 -92 -243 -160 -203 -141 -289 -193
-391 -234 -42 -17 -76 -37 -80 -48 -16 -40 -5 -115 74 -510 l82 -413 -62 0
c-57 0 -63 -2 -63 -21 0 -15 -12 -6 -49 39 -50 60 -228 230 -291 278 -87 65
-195 82 -311 48 -94 -28 -318 -147 -481 -256 -121 -80 -273 -226 -256 -244 3
-2 151 67 329 154 178 88 325 159 325 158 4 -3 -101 -526 -106 -526 -3 0 -129
47 -280 104 -310 117 -283 116 -322 17 -14 -38 -23 -87 -26 -152 -5 -112 15
-205 73 -347 20 -48 39 -94 41 -103 5 -13 -31 -20 -255 -49 -144 -19 -261 -37
-261 -40 0 -4 17 -14 38 -24 26 -13 74 -21 162 -26 124 -7 283 -40 306 -64 6
-6 23 -47 38 -91 177 -515 409 -943 651 -1203 90 -97 254 -228 349 -277 l76
-40 0 -42 0 -43 40 0 40 0 0 -40 0 -40 40 0 c39 0 40 -1 40 -36 0 -21 -6 -41
-15 -48 -15 -10 -126 -257 -120 -264 2 -2 53 28 114 67 91 58 111 67 111 52 0
-11 8 -21 18 -23 16 -3 4 -59 -113 -553 -73 -302 -129 -551 -125 -553 3 -1 73
34 155 78 81 44 149 79 150 77 1 -1 -53 -198 -121 -437 -68 -239 -120 -437
-116 -441 6 -6 368 -69 395 -69 4 0 7 -34 7 -76 l0 -75 -67 5 c-38 4 -153 11
-258 16 -104 5 -233 12 -286 16 l-95 5 -39 -48 c-21 -26 -42 -53 -47 -59 -6
-9 15 -12 79 -11 116 1 167 -15 219 -67 52 -51 66 -100 68 -223 1 -63 5 -93
12 -93 7 0 102 31 213 70 l201 69 0 -24 c0 -22 4 -25 40 -25 l40 0 0 -40 0
-40 125 0 125 0 0 40 0 40 40 0 40 0 0 40 0 40 45 0 45 0 0 45 0 45 40 0 40 0
0 40 0 40 40 0 40 0 0 85 0 85 45 0 45 0 0 80 0 80 40 0 40 0 0 210 0 210 40
0 40 0 0 625 0 625 -40 0 -40 0 0 165 0 165 -40 0 -40 0 0 125 0 125 -45 0
-45 0 0 85 0 85 -40 0 -40 0 0 84 0 85 -37 3 c-35 3 -38 6 -41 37 -2 18 -8 38
-13 45 -34 42 -79 122 -79 141 0 20 -6 24 -37 27 l-38 3 -3 122 -3 123 -39 0
-40 0 0 80 0 80 -45 0 -45 0 0 460 0 460 45 0 45 0 0 250 0 250 40 0 40 0 0
165 0 165 40 0 40 0 0 45 0 45 85 0 85 0 0 40 0 40 258 -1 c141 0 394 -4 562
-7 300 -7 306 -7 354 -32 35 -18 55 -37 70 -65 21 -40 21 -52 27 -975 3 -514
9 -947 13 -961 9 -31 39 -39 151 -39 92 0 113 -7 130 -41 8 -15 15 -30 15 -32
0 -3 -26 -8 -57 -12 -136 -17 -231 -85 -269 -196 -18 -51 -19 -88 -16 -774 4
-794 -6 -1273 -58 -2755 -43 -1206 -51 -1307 -107 -1420 -32 -62 -55 -77 -223
-138 -296 -106 -624 -128 -964 -62 -106 21 -250 61 -291 81 -28 14 -61 65 -88
135 -22 58 -22 65 -22 594 -1 460 -3 543 -17 594 -40 146 -113 178 -366 156
-78 -7 -145 -17 -148 -21 -3 -5 -12 -175 -19 -377 -38 -976 -46 -1201 -60
-1507 -27 -600 -22 -661 59 -741 61 -62 124 -77 285 -72 177 6 247 38 286 131
l15 37 155 0 155 0 0 40 0 40 45 0 c44 0 45 0 45 33 l0 34 103 17 c709 119
1220 193 1225 177 2 -6 21 -11 43 -11 39 0 39 0 39 -40 l0 -40 420 0 420 0 0
40 0 40 63 0 c92 1 340 26 432 45 88 18 295 84 295 94 0 3 -100 41 -222 83
-162 56 -224 74 -230 65 -4 -7 -8 21 -8 61 l0 72 40 0 40 0 0 125 0 125 45 0
45 0 0 85 0 85 40 0 40 0 0 40 0 40 40 0 40 0 0 85 0 85 45 0 45 0 0 40 0 40
40 0 40 0 0 85 0 85 40 0 40 0 0 40 0 40 85 0 85 0 0 40 0 40 40 0 40 0 0 45
0 45 85 0 c82 0 85 -1 99 -28 18 -35 72 -90 106 -107 20 -10 268 -65 295 -65
3 0 5 -11 5 -25 l0 -25 125 0 125 0 0 -45 0 -45 415 0 415 0 0 45 0 45 134 0
c121 0 139 -2 187 -25 105 -48 213 -58 524 -51 154 4 300 12 325 18 25 7 101
33 169 59 l123 48 62 -31 c33 -16 147 -77 253 -135 306 -166 469 -233 667
-274 85 -17 125 -20 251 -16 97 3 175 11 221 22 70 18 71 18 125 -4 54 -22
397 -96 519 -112 108 -14 110 -15 110 -54 l0 -35 125 0 125 0 0 -40 0 -40 205
0 205 0 0 40 0 40 85 0 c78 0 85 2 85 20 0 19 7 20 108 20 95 1 342 37 358 53
3 2 2 16 -1 29 -6 23 -21 29 -148 64 l-142 40 -3 57 -3 57 -44 0 -45 0 0 40 0
40 -40 0 -40 0 0 40 0 40 -66 0 -66 0 6 28 c2 15 8 57 11 95 8 80 -5 77 192
48 149 -22 258 -56 419 -130 61 -28 116 -51 122 -51 7 0 20 17 31 38 l20 39
-105 120 -104 120 -163 12 c-89 7 -202 19 -251 27 -69 12 -95 13 -117 4 -33
-14 -53 -57 -47 -105 l4 -35 -81 78 c-95 93 -125 112 -227 146 -94 32 -179 34
-224 7 -36 -22 -83 -78 -144 -174 l-43 -68 49 -52 c27 -29 69 -73 93 -99 l43
-46 -56 -4 -55 -3 -323 257 -323 256 -27 -31 c-15 -18 -27 -35 -28 -38 0 -3
35 -60 79 -126 l79 -120 -94 -38 c-52 -21 -94 -40 -94 -41 0 -2 29 -48 65
-103 36 -54 65 -101 65 -105 0 -3 -144 -6 -320 -6 l-320 0 0 30 0 29 96 3 97
3 73 255 c40 140 71 256 69 258 -3 3 -529 -322 -723 -446 l-24 -15 4 63 3 64
-135 58 c-74 32 -153 65 -175 74 l-39 16 179 79 c98 43 183 83 187 87 5 5
-108 34 -249 66 -142 32 -261 61 -266 65 -4 4 27 55 68 114 41 58 75 110 75
116 0 10 -61 51 -76 51 -13 0 -130 -218 -148 -275 -8 -27 -20 -69 -26 -92 -6
-24 -13 -43 -15 -43 -2 0 -28 9 -57 21 -110 43 -357 127 -395 133 -37 7 -43 4
-113 -54 -81 -65 -179 -120 -217 -120 -19 0 -23 5 -23 30 0 29 -2 30 -45 30
l-45 0 0 85 0 85 -40 0 -40 0 0 40 0 40 -40 0 -40 0 0 85 0 85 -45 0 -45 0 0
40 0 40 -50 0 -51 0 16 30 c22 43 19 60 -27 149 -46 91 -41 89 -131 44 -26
-13 -50 -30 -54 -38 -3 -11 -21 -15 -59 -15 l-54 0 0 40 0 40 -42 0 -43 0 4
125 3 125 -421 0 -421 0 0 245 c0 227 1 245 18 245 25 0 886 -58 955 -64 l57
-6 0 40 0 40 150 0 150 0 0 -40 0 -40 65 0 65 0 0 -295 c0 -162 2 -295 6 -295
3 0 103 34 222 75 119 41 220 75 224 75 5 0 8 -13 8 -30 l0 -30 125 0 125 0 0
40 0 40 80 0 80 0 0 83 0 82 207 106 206 107 -106 -5 c-117 -6 -169 3 -254 44
l-53 26 0 114 0 113 -40 0 -40 0 0 210 0 210 40 0 40 0 0 80 0 80 45 0 45 0 0
85 0 85 40 0 40 0 0 40 0 40 40 0 c36 0 40 3 40 25 0 14 3 25 8 25 4 0 79 -9
166 -20 88 -11 161 -18 164 -15 3 2 0 17 -7 32 -10 26 -30 146 -31 186 0 10 8
17 20 17 18 0 20 7 20 85 l0 85 40 0 40 0 0 40 0 40 40 0 40 0 0 125 0 125 45
0 45 0 0 85 0 85 29 0 c29 0 29 0 20 -42 -6 -22 -6 -45 -2 -49 4 -4 28 -9 53
-11 l45 -3 6 45 c3 25 17 123 29 218 22 167 24 172 47 172 21 0 23 4 23 45 l0
45 40 0 40 0 0 40 0 40 40 0 40 0 0 40 0 40 45 0 45 0 0 45 0 45 80 0 80 0 0
40 0 40 85 0 85 0 0 40 0 40 158 0 158 0 -4 -93 c-1 -50 -27 -778 -57 -1616
-30 -838 -56 -1525 -57 -1527 -2 -2 -33 19 -68 46 -36 27 -68 49 -72 50 -4 0
-75 41 -158 90 -83 50 -154 90 -158 90 -4 0 -32 -59 -62 -130 -30 -71 -58
-130 -61 -130 -4 0 -10 20 -13 45 -4 24 -11 47 -16 50 -5 3 -96 19 -202 35
-106 17 -263 41 -348 55 -85 14 -164 25 -175 25 -21 0 150 -71 480 -197 184
-71 206 -77 275 -78 99 0 137 16 150 65 6 21 20 50 32 65 20 25 25 27 77 22
68 -7 154 -30 158 -43 2 -6 -33 -83 -77 -173 -45 -90 -79 -170 -76 -177 14
-35 258 -84 422 -84 l114 0 0 -25 c0 -25 1 -25 80 -25 l80 0 0 -45 0 -45 210
0 210 0 0 45 0 45 125 0 125 0 0 40 0 40 85 0 85 0 0 40 0 40 80 0 80 0 0 45
0 45 45 0 45 0 0 40 0 40 40 0 40 0 0 40 0 40 40 0 40 0 0 63 0 64 93 14 92
14 15 238 15 237 -133 89 -134 89 -56 -35 c-31 -18 -79 -40 -106 -48 -70 -21
-222 -19 -361 5 -64 11 -130 20 -146 20 -28 0 -29 2 -29 45 l0 45 -80 0 -80 0
0 40 0 40 -100 0 c-76 0 -100 3 -100 13 0 7 21 130 46 273 l46 259 -12 225
c-6 124 -14 377 -17 563 l-6 337 27 0 c24 0 26 -3 26 -45 l0 -45 85 0 85 0 0
45 0 45 85 0 85 0 0 40 0 40 40 0 40 0 0 41 0 42 63 -65 c61 -62 146 -127 214
-162 25 -12 34 -25 38 -54 30 -180 95 -328 181 -414 104 -104 204 -140 400
-142 l122 -1 56 -40 c111 -79 155 -102 229 -118 85 -19 335 -52 342 -45 2 2 2
20 -1 39 -5 30 -19 44 -118 114 l-113 80 123 65 c68 36 126 68 128 71 3 3 -5
34 -19 69 -14 35 -25 67 -25 71 0 7 91 42 95 36 2 -1 33 -129 71 -284 37 -156
71 -283 75 -283 6 0 109 607 109 643 0 16 -26 17 -407 17 -225 0 -425 3 -445
6 l-38 7 0 68 0 69 -40 0 -40 0 0 85 0 85 -40 0 -40 0 0 119 0 120 94 143 c51
79 121 193 156 253 35 61 66 112 69 115 3 3 14 22 23 43 14 28 24 37 43 37 23
0 25 4 25 44 0 35 19 84 100 247 103 212 137 312 126 372 -17 89 -91 143 -246
178 -52 12 -126 33 -165 46 -162 58 -218 103 -328 258 -93 130 -128 168 -177
190 -77 35 -139 5 -353 -167 -210 -169 -344 -234 -511 -249 -115 -10 -489 3
-816 27 -178 14 -432 18 -1482 21 l-1268 4 0 -1360 c0 -1354 0 -1361 -20
-1361 -17 0 -20 -7 -20 -40 l0 -40 -85 0 -85 0 0 -40 0 -40 -110 0 -110 0 -2
308 -3 307 -598 0 -597 0 0 23 c0 19 -5 22 -40 22 l-40 0 0 125 0 125 -40 0
-40 0 0 170 0 170 -45 0 -45 0 0 80 0 80 -40 0 -40 0 0 85 0 85 -28 0 c-28 0
-28 0 -25 58 2 31 19 464 38 962 19 498 37 947 41 998 l6 92 1633 0 1633 0 4
37 c3 21 3 40 1 43 -4 4 -1066 39 -4253 139 -888 28 -1661 54 -1717 57 l-102
6 -31 54 -31 55 3 151 3 151 110 67 c61 38 109 72 108 76 -3 13 -138 43 -230
50 l-83 7 0 258 0 259 33 0 c57 0 1806 -65 3582 -135 490 -19 1016 -39 1170
-44 154 -6 687 -26 1185 -45 498 -20 1499 -58 2225 -86 726 -27 1373 -52 1438
-56 l117 -6 0 -74 c0 -67 2 -74 20 -74 11 0 20 -7 20 -15 0 -18 -111 -809
-114 -812 -3 -4 -979 -93 -1021 -93 -40 -1 9 -18 155 -54 327 -80 714 -143
805 -131 66 8 130 40 160 79 50 65 57 106 60 326 2 233 13 284 67 337 38 36
91 60 96 44 2 -6 24 -11 48 -11 l44 0 0 -45 0 -45 40 0 40 0 0 -40 0 -40 85 0
85 0 0 -40 0 -40 125 0 125 0 0 -45 0 -45 125 0 125 0 0 -40 0 -40 50 0 50 0
0 -1190 0 -1190 35 0 c21 0 35 5 35 13 0 39 51 1678 60 1912 5 154 10 319 10
368 l0 87 75 0 75 0 0 -240 0 -240 55 0 55 0 0 240 0 240 40 0 40 0 0 85 0 85
40 0 40 0 0 80 0 80 45 0 45 0 0 460 0 460 -45 0 -45 0 0 125 0 125 -40 0 -40
0 0 40 0 40 -40 0 -40 0 0 361 0 361 -31 92 c-16 50 -50 133 -74 184 l-44 92
30 0 c27 0 29 -3 29 -36 0 -41 15 -37 25 6 7 30 7 30 76 30 l69 0 0 40 0 40
40 0 40 0 0 40 0 40 45 0 45 0 0 85 0 85 40 0 40 0 0 125 0 125 40 0 40 0 0
585 0 585 -40 0 -40 0 0 79 c0 47 -4 81 -11 83 -6 2 -19 77 -29 168 -11 91
-25 211 -31 268 l-12 102 -47 0 -48 0 -21 -118 c-45 -247 -49 -262 -50 -214
l-1 42 -54 0 c-67 0 -63 -15 -72 261 -4 114 -10 212 -14 219 -5 8 -22 9 -52 5
l-46 -7 5 -106 c4 -72 0 -145 -11 -222 -24 -163 -16 -150 -97 -150 l-69 0 0
270 0 271 -47 -27 c-71 -41 -191 -123 -342 -234 -151 -111 -293 -190 -340
-190 -30 0 -31 2 -31 40 l0 40 -80 0 -80 0 0 40 0 40 -45 0 -45 0 0 45 0 45
-75 0 -75 0 0 929 0 929 -72 4 c-40 3 -76 3 -80 1 -5 -2 -8 -359 -8 -794 l0
-789 -40 0 c-46 0 -50 3 -135 113 -33 43 -62 72 -64 65 -3 -7 -21 -94 -41
-193 l-36 -180 -47 -3 -47 -3 -1 163 c-1 182 -2 181 -49 -24 l-32 -138 -52 0
-51 0 -187 187 -187 187 25 34 c14 18 24 35 23 37 -2 2 -121 -19 -264 -46
-143 -26 -264 -48 -270 -49 -5 0 -11 20 -12 45 -4 102 -66 144 -226 152 -56 3
-129 0 -162 -6 -84 -15 -225 -54 -225 -62 0 -4 41 -50 91 -102 125 -133 183
-157 513 -212 82 -14 151 -27 153 -29 2 -2 -11 -43 -30 -90 -99 -249 -245
-394 -457 -452 -50 -14 -102 -18 -227 -18 -143 -1 -160 -2 -150 -16 6 -8 35
-42 64 -76 l52 -61 -217 -97 c-210 -93 -242 -105 -242 -88 0 4 -31 40 -68 81
l-68 75 -35 -24 c-19 -13 -35 -24 -35 -24 -4 -2 53 -297 59 -302 3 -3 86 13
183 37 126 30 179 39 182 30 10 -30 70 -108 99 -127 29 -20 41 -21 181 -16
133 4 282 -7 328 -25 10 -3 14 -22 14 -59 l0 -54 45 0 45 0 0 -40 0 -40 40 0
40 0 0 -40 0 -40 85 0 85 0 0 -45 0 -45 40 0 40 0 0 -40 c0 -28 4 -40 14 -40
11 0 8 -16 -15 -65 -59 -132 -47 -243 39 -357 26 -34 74 -83 108 -108 l61 -47
-186 -97 c-102 -54 -190 -102 -194 -106 -4 -4 65 -17 155 -29 90 -12 196 -27
237 -33 l75 -11 -190 -95 c-161 -81 -185 -96 -164 -102 14 -4 96 -15 183 -25
l157 -19 0 -412 c0 -253 4 -432 11 -462 17 -80 66 -152 124 -182 44 -22 62
-25 152 -25 l103 0 0 -37 c0 -38 0 -38 40 -38 l40 0 0 -85 0 -85 40 0 c40 0
40 0 40 -39 0 -40 0 -40 43 -43 23 -2 -147 -6 -378 -11 -413 -7 -660 -15
-1244 -38 -353 -14 -633 -6 -901 25 -107 13 -174 24 -147 25 l47 1 0 40 0 40
85 0 85 0 0 45 0 45 80 0 80 0 0 80 0 80 45 0 45 0 0 45 0 45 40 0 40 0 0 165
0 165 40 0 40 0 0 125 0 125 -40 0 -40 0 0 125 0 125 -40 0 -40 0 0 85 c0 84
0 85 -25 85 l-26 0 7 123 c8 152 -2 196 -60 253 -35 36 -51 44 -116 57 -41 9
-167 23 -280 31 -113 9 -306 28 -430 41 -124 14 -317 34 -429 45 -230 21 -227
22 -296 -49 -21 -23 -47 -41 -57 -41 -10 0 -161 52 -336 116 l-319 116 -13 69
c-7 38 -16 69 -20 69 -4 0 -27 -25 -50 -55 -23 -30 -75 -86 -116 -124 -126
-120 -187 -125 -464 -36 -189 60 -280 75 -469 75 -274 0 -440 -24 -817 -119
-339 -85 -348 -86 -771 -85 -372 0 -373 0 -373 -21 0 -20 26 -25 548 -105
l547 -85 -3 -270 c-4 -349 10 -620 36 -695 27 -78 55 -131 86 -162 29 -29 107
-47 301 -70 l105 -12 0 -33 c0 -32 1 -33 45 -33 l45 0 0 -45 0 -45 40 0 40 0
0 -40 0 -40 165 0 165 0 0 40 0 40 85 0 85 0 0 85 0 85 40 0 40 0 0 85 0 85
45 0 45 0 0 250 0 250 40 0 40 0 0 80 0 80 -40 0 -40 0 0 125 0 125 -45 0 -45
0 0 45 0 45 -71 0 -72 0 6 40 c3 23 12 52 21 65 36 54 41 55 503 59 235 3 500
9 588 15 205 14 417 24 475 22 51 -2 82 -19 107 -58 17 -25 18 -75 21 -659 l3
-632 22 -5 c12 -3 106 -13 210 -23 l187 -18 0 -73 0 -73 45 0 45 0 0 -80 0
-80 80 0 80 0 0 -45 0 -45 85 0 85 0 0 -33 0 -33 -112 12 c-298 33 -508 38
-812 19 -205 -12 -369 -16 -556 -12 -146 2 -758 9 -1360 15 -1746 17 -2081 28
-3025 102 -209 17 -419 33 -467 37 l-88 6 0 28 c0 28 2 29 45 29 l45 0 0 85 0
85 40 0 40 0 0 125 0 125 40 0 40 0 0 125 0 125 45 0 45 0 0 375 0 375 -45 0
-45 0 0 40 0 40 -40 0 c-40 0 -40 0 -40 38 0 20 3 61 6 90 l7 52 390 0 c240 0
387 4 382 9 -11 11 -346 78 -575 115 -351 57 -651 90 -1030 111 -266 15 -315
22 -380 55 -145 75 -239 341 -169 476 33 64 89 100 231 149 68 24 155 54 193
69 168 62 244 18 280 -161 l7 -33 352 0 352 0 105 -215 c57 -118 106 -215 109
-215 3 0 24 120 45 268 l40 267 38 3 37 3 0 -40 0 -41 70 0 c68 0 73 -2 220
-82 141 -76 153 -84 175 -127 35 -71 110 -135 174 -151 66 -16 120 -10 286 28
269 63 379 69 580 33 61 -10 111 -18 111 -18 1 1 5 28 8 60 l7 57 -115 0 c-63
0 -117 3 -119 8 -3 4 -7 21 -11 37 l-6 30 400 140 c352 123 401 143 406 163 4
13 3 26 -1 30 -3 4 -441 8 -971 10 -834 3 -964 5 -964 18 0 10 12 14 40 14
l40 0 0 85 0 85 40 0 40 0 0 80 0 80 45 0 45 0 0 165 0 165 33 1 c104 2 233
-4 387 -17 423 -35 648 -11 850 91 68 35 132 76 126 83 -3 2 -81 11 -173 19
-117 11 -331 16 -709 18 -297 1 -555 6 -572 10 l-32 7 0 274 0 274 45 0 45 0
0 80 0 80 40 0 40 0 0 45 0 45 40 0 40 0 0 40 0 40 45 0 45 0 0 40 0 40 40 0
40 0 0 45 0 45 290 0 290 0 0 -45 0 -45 115 0 c111 0 115 -1 120 -22 3 -13 16
-111 30 -218 38 -291 28 -261 89 -258 l51 3 25 248 c24 244 25 247 47 247 21
0 23 5 23 45 l0 45 85 0 85 0 0 40 0 40 40 0 40 0 0 85 0 85 45 0 45 0 0 205
c0 195 1 205 19 205 19 0 19 -21 23 -914 2 -503 5 -916 8 -918 3 -3 26 -3 53
0 l47 4 0 1759 0 1759 -55 0 -55 0 0 -425 c0 -418 0 -425 -20 -425 -20 0 -20
7 -20 375 l0 375 -45 0 -45 0 0 125 0 125 45 0 45 0 0 125 0 125 40 0 40 0 0
40 0 40 40 0 40 0 0 40 0 40 350 0 350 0 0 -1365 0 -1365 55 0 55 0 2 727 3
727 195 112 c107 62 198 114 202 116 12 5 -17 89 -33 98 -8 4 -70 15 -139 24
-69 9 -140 20 -157 23 l-33 5 0 494 0 494 35 0 c34 0 35 1 35 40 l0 40 40 0
40 0 0 125 0 125 45 0 45 0 0 915 0 915 -45 0 -45 0 0 125 0 125 -40 0 -40 0
0 84 0 85 -37 3 -38 3 -3 83 c-2 70 -5 82 -20 82 -12 0 -27 20 -45 55 -21 44
-27 70 -27 125 l0 70 -40 0 -40 0 0 165 0 165 -40 0 -40 0 0 85 0 85 -45 0
-45 0 0 40 0 40 -40 0 -40 0 0 40 c0 39 2 42 48 61 169 73 555 125 1292 174
206 14 383 25 393 25 16 0 17 -16 17 -189 l0 -190 -87 -61 c-49 -34 -183 -122
-299 -195 l-211 -135 4 -52 c2 -29 19 -363 38 -743 41 -823 45 -883 55 -864
10 18 74 306 94 425 38 219 48 315 55 559 9 290 16 321 77 375 44 38 88 56
167 70 34 6 72 13 85 15 l22 5 0 -154 c0 -166 0 -166 -56 -166 -13 0 -24 -5
-24 -11 0 -6 -15 -41 -32 -78 l-33 -66 3 -860 c2 -473 -1 -952 -5 -1065 -8
-183 -11 -210 -32 -252 -40 -83 -125 -112 -251 -84 -36 7 -66 12 -68 11 -3 -3
107 -353 114 -363 2 -4 142 16 184 25 19 5 14 -3 -25 -34 -102 -81 -181 -194
-222 -317 -26 -78 -27 -89 -28 -303 0 -209 -1 -223 -21 -250 -31 -41 -76 -54
-166 -47 -111 8 -131 -4 -315 -196 l-93 -97 27 -103 27 -103 30 39 c17 21 67
76 112 120 176 176 348 208 556 103 110 -55 148 -86 148 -119 0 -29 2 -30 45
-30 l45 0 0 -45 0 -45 80 0 80 0 0 -40 0 -40 45 0 45 0 0 -65 0 -65 -94 0
c-96 0 -126 -11 -126 -44 0 -22 -59 -96 -93 -116 -45 -28 -97 -25 -217 11
-148 44 -168 42 -278 -33 l-42 -29 17 -32 c10 -17 39 -52 64 -79 48 -51 58
-54 152 -49 27 2 47 -1 47 -8 0 -22 -70 -1913 -75 -2034 l-5 -127 255 0 c140
0 255 4 255 8 0 4 -25 45 -55 91 -30 45 -57 99 -61 119 -8 42 3 918 13 987 5
43 7 45 39 45 l34 0 0 -125 0 -125 40 0 40 0 0 -40 0 -40 75 0 75 0 0 -85 0
-85 45 0 45 0 0 39 c0 21 3 59 6 85 l7 46 83 0 84 0 0 40 0 40 85 0 85 0 0 45
c0 44 1 45 31 45 l31 0 -6 -88 c-4 -48 -9 -121 -11 -162 l-6 -75 32 35 c48 55
85 126 110 211 20 69 26 79 46 79 20 0 23 5 23 40 l0 40 80 0 80 0 0 40 0 40
85 0 85 0 0 45 0 45 85 0 85 0 0 40 0 40 165 0 165 0 0 40 0 40 260 0 259 0
10 -37 c5 -21 22 -92 36 -158 15 -66 29 -122 31 -124 5 -6 6 -5 50 74 38 69
39 72 44 200 l5 130 28 3 c24 3 27 7 27 43 0 39 0 39 40 39 l40 0 0 165 0 165
45 0 45 0 0 170 0 170 -45 0 -45 0 0 205 0 205 -40 0 -40 0 0 210 c0 197 -1
210 -18 210 -18 0 -19 39 -25 992 -4 545 -7 1202 -7 1460 l0 468 65 0 65 0 0
40 0 40 45 0 45 0 0 40 0 40 40 0 40 0 0 45 0 45 85 0 85 0 0 40 0 40 40 0 40
0 0 40 0 40 40 0 40 0 0 45 0 45 45 0 45 0 0 40 0 40 40 0 40 0 0 85 0 85 40
0 40 0 0 40 0 40 45 0 45 0 0 125 0 125 40 0 40 0 0 85 0 85 40 0 40 0 0 40 0
40 45 0 45 0 0 40 0 40 254 0 254 0 6 -52 c3 -29 29 -361 56 -738 28 -377 53
-695 55 -706 l5 -21 132 23 c73 13 141 24 151 24 16 0 17 -95 18 -1842 0
-1014 2 -1838 5 -1833 2 6 33 251 69 545 81 670 87 715 88 716 1 0 247 29 545
65 299 35 549 67 555 71 7 4 7 20 1 50 l-9 43 -275 32 c-324 38 -563 83 -638
119 -65 32 -176 134 -203 185 -18 35 -19 62 -19 346 0 322 18 934 46 1551 20
454 17 569 -15 635 -43 89 -140 127 -279 107 -41 -5 -84 -13 -98 -16 l-24 -6
0 396 0 396 35 0 c34 0 35 1 35 40 l0 40 40 0 40 0 0 85 0 85 40 0 40 0 0 250
0 250 -23 0 c-40 0 -57 29 -57 98 l0 62 -40 0 -40 0 0 45 c0 45 0 45 -36 45
l-36 0 91 71 90 71 -44 58 c-89 115 -138 138 -245 116 -36 -8 -94 -26 -129
-40 -53 -21 -81 -26 -153 -26 l-88 0 0 610 c0 519 -2 610 -14 610 -8 0 -32
-20 -54 -45 -41 -47 -62 -96 -223 -530 -224 -605 -346 -777 -606 -847 -71 -19
-107 -21 -403 -22 -312 -2 -331 -3 -460 -30 -241 -49 -372 -46 -484 11 -72 36
-148 119 -192 208 -20 41 -38 75 -40 75 -1 0 -34 -42 -72 -93 -124 -165 -186
-217 -258 -217 -54 0 -97 30 -155 106 l-46 61 -96 -43 -97 -42 0 174 0 174 40
0 40 0 0 85 0 85 40 0 40 0 0 40 0 40 45 0 45 0 0 45 0 45 80 0 80 0 0 40 0
40 300 0 c165 0 300 -2 300 -5 0 -2 -38 -73 -85 -157 -47 -84 -80 -154 -75
-156 16 -6 193 83 276 138 94 63 246 212 297 293 25 38 43 57 57 57 17 0 20 7
20 39 0 21 11 65 26 96 70 161 90 403 45 570 -26 96 -78 212 -90 199 -4 -5
-18 -58 -31 -119 -13 -60 -26 -113 -30 -118 -12 -14 -173 119 -360 296 -184
174 -185 175 -212 161 -71 -37 -134 -118 -212 -273 -72 -143 -151 -199 -266
-188 -82 7 -134 40 -246 154 -51 52 -97 93 -103 92 -11 -4 -211 -268 -211
-279 0 -4 21 -21 46 -40 25 -18 42 -36 37 -40 -4 -4 -52 -24 -106 -44 -106
-41 -179 -85 -211 -129 -16 -21 -21 -47 -24 -122 l-4 -95 -54 0 -53 0 -51 74
-51 74 -47 -13 c-26 -7 -101 -30 -167 -51 -107 -33 -132 -38 -230 -38 -97 -1
-115 2 -155 22 -66 35 -139 110 -256 264 -57 75 -108 140 -115 143 -16 11 -3
-42 38 -155 69 -185 148 -324 391 -685 181 -269 241 -370 320 -534 62 -127
131 -315 120 -327 -4 -3 -62 -15 -130 -25 -68 -10 -229 -38 -359 -63 -361 -69
-448 -79 -639 -73 -127 3 -179 9 -225 24 l-60 19 -495 -42 c-289 -25 -496 -39
-498 -33 -2 5 -21 9 -43 9 -39 0 -39 0 -39 40 l0 40 -45 0 -45 0 0 165 0 165
45 0 45 0 0 45 0 45 40 0 40 0 0 40 0 40 40 0 40 0 0 85 0 85 45 0 45 0 0 80
0 80 40 0 40 0 0 85 0 85 40 0 40 0 0 85 0 85 45 0 45 0 0 289 0 288 118 75
c64 41 153 96 197 123 44 27 81 50 83 51 5 3 -69 122 -82 133 -7 6 -44 16 -84
23 -179 30 -270 -67 -288 -312 -5 -66 -11 -90 -20 -90 -10 0 -14 13 -14 40 l0
40 -40 0 -40 0 0 85 c0 78 -2 85 -20 85 -16 0 -20 7 -21 33 -2 69 -10 80 -72
95 -35 9 -57 19 -57 28 0 9 -12 14 -34 14 -25 0 -44 9 -69 33 -56 53 -61 82
-63 367 -4 1015 -6 1079 -20 995 -25 -150 -34 -350 -34 -780 0 -425 -5 -535
-21 -535 -5 0 -9 18 -9 40 l0 40 -89 0 -89 0 -6 53 c-3 28 -7 213 -8 409 -1
196 -5 355 -8 353 -4 -2 -37 -48 -74 -103 -88 -129 -92 -155 -37 -236 23 -32
41 -69 41 -83 0 -24 -33 -94 -68 -146 l-19 -28 -129 160 c-77 96 -131 155
-135 148 -4 -7 -14 -52 -23 -101 -9 -49 -17 -91 -19 -92 -2 -2 -152 15 -335
38 l-332 42 0 43 0 43 -40 0 -40 0 0 170 0 170 -45 0 -45 0 0 290 0 290 -40 0
-40 0 0 125 0 125 40 0 40 0 0 165 0 165 45 0 45 0 0 85 0 85 40 0 40 0 0 40
0 40 40 0 40 0 0 45 0 45 45 0 45 0 0 40 0 40 80 0 80 0 0 40 0 40 85 0 85 0
0 45 0 45 85 0 85 0 0 40 0 40 80 0 80 0 0 40 0 40 45 0 45 0 0 45 0 45 79 0
80 0 4 43 c2 23 5 -104 7 -283 1 -179 5 -374 9 -435 l6 -110 18 180 c15 151
36 512 37 648 l0 37 45 0 45 0 0 40 0 40 70 0 70 0 1 -102 c1 -115 10 -108 32
23 l13 74 117 3 117 3 0 -41 0 -40 85 0 85 0 0 -815 c0 -448 3 -815 6 -815 4
0 275 193 303 216 2 2 -17 24 -43 49 -126 127 -196 365 -196 670 0 206 22 369
72 543 l21 72 38 0 39 0 0 -45 0 -45 98 0 98 0 12 -207 c7 -113 14 -208 16
-210 1 -2 34 -4 72 -6 l69 -2 33 160 c17 88 37 184 43 213 l10 52 70 0 69 0 0
45 0 45 40 0 40 0 0 40 0 40 40 0 40 0 0 85 0 85 -40 0 -40 0 0 80 0 80 -40 0
-40 0 0 45 c0 25 -5 45 -10 45 -10 0 -8 21 7 74 5 16 12 18 61 12 76 -9 153
-46 185 -88 40 -52 55 -107 71 -259 17 -157 29 -205 61 -245 18 -22 25 -25 28
-14 3 8 26 184 52 390 25 206 49 392 52 413 l6 37 -445 0 c-245 0 -473 3 -507
6 l-61 7 0 38 0 39 -45 0 -45 0 0 45 c0 45 0 45 -34 45 -32 0 -35 2 -41 40
l-7 40 -84 0 -84 0 0 40 c0 35 -3 40 -23 40 -20 0 -25 8 -35 59 -7 32 -29 89
-49 127 -20 38 -56 111 -79 162 l-43 92 327 -2 c270 -2 348 1 447 15 205 31
259 50 312 110 28 33 83 149 98 210 7 26 5 28 -16 23 -13 -4 -130 -20 -259
-36 -460 -60 -676 -103 -820 -165 -47 -20 -159 -76 -250 -125 -229 -124 -325
-166 -463 -206 -218 -62 -471 -100 -827 -123 -658 -43 -770 -44 -930 -11 -99
21 -138 25 -280 23 -91 -1 -262 -9 -380 -18 -118 -8 -218 -15 -222 -15 -5 0
-8 11 -8 25 0 23 -4 25 -40 25 l-40 0 0 125 0 125 -40 0 -40 0 0 40 0 40 40 0
40 0 0 399 0 398 69 164 c95 224 122 318 128 455 6 126 -11 205 -53 245 l-23
22 -100 -204 -99 -204 -1 198 -1 197 40 0 40 0 0 125 0 125 40 0 40 0 0 85 0
85 -41 0 c-27 0 -39 4 -37 12 4 11 614 178 648 178 8 0 56 -54 105 -120 50
-65 94 -119 98 -119 5 -1 6 16 3 37 -3 20 -11 175 -17 344 -7 169 -15 312 -19
318 -4 6 -26 2 -60 -10 -30 -11 -74 -27 -97 -36 -32 -12 -53 -30 -87 -78 -95
-134 -230 -227 -371 -257 -61 -13 -256 -16 -275 -4 -5 3 -10 37 -10 76 l0 69
-45 0 -45 0 0 125 0 125 -40 0 -40 0 0 500 0 500 40 0 40 0 0 125 0 125 45 0
45 0 0 85 0 85 40 0 40 0 0 125 0 125 40 0 40 0 0 135 c0 74 4 135 8 135 5 0
63 36 130 80 l121 79 -21 51 -21 51 -64 -7 -63 -6 0 201 0 201 40 0 40 0 0 80
0 80 40 0 40 0 0 85 0 85 45 0 45 0 0 85 0 85 40 0 40 0 0 40 0 40 40 0 40 0
0 85 0 85 45 0 45 0 0 40 0 40 40 0 40 0 0 40 0 40 40 0 40 0 0 45 0 45 45 0
45 0 0 40 0 40 40 0 40 0 0 85 0 85 40 0 40 0 0 80 0 80 45 0 45 0 0 170 0
170 40 0 40 0 0 125 0 125 40 0 40 0 0 80 0 80 45 0 45 0 0 45 0 45 40 0 40 0
0 40 0 40 40 0 40 0 0 40 0 40 45 0 45 0 0 45 0 45 40 0 40 0 0 40 0 40 85 0
85 0 0 40 0 40 40 0 40 0 0 45 0 45 40 0 40 0 0 40 0 40 45 0 44 0 3 62 3 63
65 32 c36 18 116 46 178 63 123 33 195 65 229 102 28 30 53 89 53 125 0 29 -1
29 -217 92 -120 36 -223 66 -229 68 -6 2 -16 -9 -23 -24 -6 -16 -22 -42 -36
-58 l-24 -30 -1 253 0 252 40 0 40 0 0 85 0 85 40 0 40 0 0 80 0 80 45 0 45 0
0 45 0 45 40 0 40 0 0 80 0 80 40 0 40 0 0 45 0 45 45 0 45 0 0 40 0 40 40 0
40 0 0 61 c0 49 3 60 14 56 55 -21 115 -30 206 -30 96 0 115 3 215 38 95 33
122 39 200 39 84 1 94 -2 153 -33 78 -42 151 -120 238 -254 37 -56 92 -140
122 -187 104 -157 210 -252 324 -289 39 -13 321 -62 326 -57 5 6 60 309 67
371 8 70 9 69 -107 108 l-67 22 264 190 c145 104 262 191 261 192 -6 6 -533
67 -716 83 -69 6 -210 25 -315 42 -155 26 -219 32 -350 32 l-160 1 -120 -52
c-144 -62 -240 -83 -375 -83 l-100 0 0 85 0 85 45 0 45 0 0 125 0 125 40 0 40
0 0 125 0 125 40 0 40 0 0 125 0 125 45 0 45 0 0 40 0 40 40 0 40 0 0 85 0 85
40 0 40 0 0 80 0 80 45 0 45 0 0 45 0 45 40 0 40 0 0 80 0 80 40 0 40 0 0 45
0 45 45 0 45 0 0 40 0 40 80 0 80 0 0 40 0 40 45 0 45 0 0 45 0 45 64 0 63 0
7 -52 c3 -29 6 -70 6 -90 0 -36 1 -38 34 -38 33 0 35 3 77 90 30 65 47 90 61
90 14 0 18 8 18 40 l0 40 118 0 117 0 45 -115 45 -115 75 61 c41 33 81 66 88
73 11 11 5 27 -32 90 -25 43 -46 80 -46 82 0 2 38 4 85 4 l85 0 0 45 0 45 168
-1 167 0 296 -417 c163 -229 430 -604 592 -832 162 -228 331 -454 375 -503 95
-103 117 -146 131 -250 51 -372 -83 -633 -376 -733 -66 -23 -100 -28 -218 -32
-119 -4 -279 8 -293 23 -2 2 12 115 31 252 20 136 35 248 34 249 -1 1 -28 5
-59 8 l-57 7 -31 -61 c-60 -118 -112 -313 -139 -522 -13 -98 -43 -607 -44
-763 -1 -66 2 -153 6 -192 l8 -73 -39 0 -39 0 -6 64 c-15 155 -90 226 -225
213 -31 -3 -244 -51 -472 -107 -228 -56 -682 -166 -1009 -246 -327 -79 -620
-156 -651 -170 -70 -31 -132 -92 -161 -159 -21 -48 -22 -62 -24 -440 -2 -411
-14 -626 -45 -840 -28 -189 -53 -345 -57 -341 -2 1 -12 60 -23 131 -10 70 -22
130 -25 134 -12 11 -137 -62 -184 -108 -72 -71 -96 -128 -96 -232 0 -78 3 -91
37 -160 39 -78 94 -142 106 -123 4 6 47 75 97 152 49 78 93 138 96 134 4 -4
28 -72 54 -152 63 -192 64 -205 64 -1262 1 -472 3 -858 5 -858 3 0 98 56 211
125 114 69 209 125 211 125 2 0 4 -9 4 -20 0 -19 7 -20 210 -20 l210 0 0 40 0
40 40 0 40 0 0 40 0 40 40 0 40 0 0 45 0 45 45 0 45 0 0 40 0 40 40 0 40 0 0
125 0 125 40 0 40 0 0 165 0 165 45 0 45 0 0 210 0 210 -45 0 -45 0 0 585 0
585 45 0 45 0 0 80 0 80 40 0 40 0 0 85 0 85 40 0 40 0 0 40 0 40 45 0 45 0 0
45 0 45 40 0 40 0 0 40 0 40 40 0 40 0 0 40 0 40 125 0 125 0 0 45 0 45 244 0
c186 0 246 -3 250 -12 5 -10 7 -10 12 0 4 8 31 12 85 12 l79 0 0 40 0 40 85 0
85 0 0 40 0 40 40 0 40 0 0 45 0 45 39 0 c27 0 41 5 43 15 2 11 19 4 66 -26
35 -22 66 -38 69 -35 3 2 -7 67 -22 143 -15 76 -27 159 -26 186 2 34 -2 47
-12 47 -9 0 -25 41 -47 123 -45 160 -152 481 -284 845 -58 161 -106 295 -106
298 0 7 1338 -3 1398 -11 l52 -7 0 -39 c0 -39 0 -39 40 -39 l40 0 0 -45 0 -45
85 0 85 0 0 -40 0 -40 80 0 80 0 0 -40 0 -40 49 0 49 0 125 -167 c339 -457
437 -683 442 -1032 l3 -153 43 -44 c24 -24 46 -41 50 -36 4 4 17 90 29 192 12
102 24 186 25 188 1 2 52 -59 113 -135 60 -76 145 -169 188 -208 121 -109 206
-223 390 -525 126 -207 217 -332 312 -427 46 -46 88 -83 93 -83 5 0 9 -16 9
-35 0 -34 1 -35 40 -35 l40 0 0 -85 0 -85 45 0 c32 0 45 -4 45 -14 0 -13 -76
-41 -534 -202 -103 -36 -108 -39 -80 -47 16 -6 171 -13 344 -16 173 -4 323
-10 333 -15 9 -4 17 -14 17 -22 0 -8 8 -14 18 -14 25 0 62 -41 62 -67 0 -15 7
-23 22 -25 29 -4 68 -72 68 -120 0 -20 5 -38 10 -40 15 -5 37 -153 55 -383 9
-110 19 -203 21 -207 14 -23 33 3 73 98 l45 106 59 -5 c32 -3 62 -8 65 -12 21
-21 18 -3327 -3 -3570 -3 -33 -12 -229 -20 -435 -48 -1190 -57 -1966 -30
-2520 21 -456 43 -1166 55 -1800 16 -857 29 -1392 33 -1396 5 -6 45 263 62
416 8 74 22 243 31 375 21 308 15 1014 -15 1620 -24 481 -41 962 -41 1147 0
112 2 127 18 132 101 30 412 50 412 26 0 -5 18 -10 40 -10 l40 0 0 -40 0 -40
85 0 85 0 0 -45 0 -45 165 0 165 0 0 -40 0 -39 83 -3 82 -3 3 -37 c2 -28 8
-38 20 -38 10 0 28 -20 42 -48 14 -26 88 -162 165 -303 l138 -256 38 16 39 16
0 203 0 202 155 0 155 0 2 43 c2 23 5 -275 8 -662 l5 -704 30 43 30 44 7 -55
c3 -30 6 -73 7 -96 1 -40 -1 -43 -41 -61 -58 -26 -108 -69 -124 -109 -20 -47
-17 -104 11 -223 31 -130 32 -225 4 -367 -57 -296 18 -461 238 -518 47 -13 98
-14 276 -9 164 6 217 10 217 20 0 12 25 18 130 29 30 3 67 8 81 11 l26 5 -39
142 c-34 128 -38 154 -38 264 l0 122 -30 3 c-30 3 -32 7 -75 136 -73 217 -110
289 -339 642 -176 272 -240 422 -278 655 -14 88 -17 594 -4 678 7 44 9 47 37
47 28 0 29 2 29 45 l0 45 40 0 40 0 0 40 0 40 40 0 40 0 0 40 0 40 45 0 45 0
0 53 0 53 148 -1 c134 0 151 2 194 23 75 38 115 89 124 159 25 204 -136 424
-347 472 -24 6 -133 11 -241 11 l-198 0 0 565 0 565 35 0 c32 0 35 -2 35 -30
l0 -30 250 0 c200 0 250 3 250 13 0 7 25 24 56 37 31 12 73 39 94 59 35 34 38
41 49 131 45 351 32 487 -61 663 -23 44 -66 94 -146 172 -226 220 -354 417
-437 669 -143 437 -128 799 87 2094 l82 492 93 0 93 0 0 40 0 40 45 0 45 0 0
45 0 45 40 0 40 0 0 40 0 40 40 0 40 0 0 40 0 40 45 0 45 0 0 45 0 45 40 0 40
0 0 80 0 80 40 0 40 0 0 125 0 125 45 0 45 0 0 920 0 920 -45 0 -45 0 0 80 0
80 -40 0 -40 0 0 85 0 85 -31 0 -30 0 6 48 c4 26 18 109 32 186 13 76 21 142
16 146 -8 7 -361 72 -493 90 -41 6 -76 15 -78 20 -2 6 -24 10 -48 10 l-44 0 0
40 0 40 -40 0 -40 0 0 45 0 45 -40 0 -40 0 0 40 0 40 -146 0 -146 0 20 33 c10
17 56 103 101 190 132 254 247 454 415 727 248 401 318 484 505 599 141 87
245 167 344 266 233 233 360 486 383 764 6 73 10 88 37 118 20 23 27 37 20 44
-7 7 -20 -7 -41 -44 -29 -51 -40 -60 -218 -168 -252 -152 -342 -224 -442 -348
-133 -165 -324 -425 -592 -806 -300 -426 -439 -619 -529 -735 -210 -271 -389
-418 -569 -466 -31 -8 -140 -26 -242 -40 -101 -13 -188 -28 -192 -32 -4 -4
-11 -28 -14 -53 l-6 -44 171 -84 c94 -46 171 -88 171 -93 0 -23 -94 -148 -165
-220 -41 -43 -135 -126 -208 -185 -72 -60 -204 -180 -292 -268 -88 -89 -200
-191 -250 -228 -117 -87 -321 -189 -450 -224 -93 -26 -113 -28 -280 -27 -162
0 -190 3 -279 27 -170 46 -557 212 -630 270 -28 23 -29 27 -27 100 4 119 -31
170 -134 198 -178 49 -200 61 -235 127 -12 25 -62 192 -110 372 -37 136 -64
204 -106 262 l-34 48 0 335 0 335 -40 0 -40 0 0 43 c0 41 2 43 55 71 30 16 55
31 55 35 -1 10 -294 359 -393 467 -50 55 -120 123 -154 150 -63 49 -63 49 -63
102 l0 52 -45 0 -45 0 0 40 0 40 -40 0 -40 0 0 85 0 85 -40 0 -40 0 0 40 0 40
-45 0 -45 0 0 40 c0 34 -3 40 -21 40 -21 0 -22 3 -16 93 7 116 44 258 101 386
l43 100 -51 -21 c-205 -83 -268 -96 -562 -123 -94 -8 -176 -15 -182 -15 -5 0
-69 74 -143 165 -73 91 -134 164 -135 162 -4 -3 -34 -252 -34 -276 0 -8 -13 5
-28 30 -32 49 -95 109 -222 213 -108 88 -146 135 -166 202 -18 62 -13 104 23
186 l25 57 -64 78 c-35 43 -158 194 -271 335 l-207 257 0 171 0 170 -45 0 -45
0 0 165 0 165 -40 0 -40 0 0 45 0 45 -40 0 -40 0 0 40 0 40 -85 0 c-76 0 -85
2 -85 19 0 17 9 18 103 17 85 -1 121 4 212 29 105 29 119 30 305 30 148 0 252
-7 430 -28 155 -18 480 -41 955 -67 2559 -144 3278 -189 3430 -216 203 -34
284 -31 380 18 39 20 89 39 112 43 51 8 149 -15 210 -50 24 -14 63 -36 87 -51
l45 -25 61 32 c115 60 182 46 236 -48 70 -124 85 -143 135 -165 31 -14 44 -25
36 -30 -7 -4 -81 -8 -164 -8 l-153 0 0 -37 0 -36 -23 21 c-31 30 -85 28 -147
-3 -27 -14 -56 -25 -64 -25 -8 0 -16 -6 -18 -13 -2 -8 -51 -50 -110 -95 l-106
-81 -94 71 c-51 39 -162 125 -246 190 -85 65 -158 118 -163 118 -5 0 -6 -12
-4 -27 8 -42 85 -616 85 -629 0 -12 417 -608 428 -611 4 -2 33 43 64 100 36
64 58 94 58 80 0 -20 5 -23 45 -23 l45 0 0 -40 0 -40 40 0 40 0 0 -45 0 -45
85 0 85 0 0 -40 0 -40 165 0 165 0 0 -40 0 -40 250 0 250 0 0 41 0 42 68 -6
c37 -4 76 -9 87 -12 18 -6 20 -2 17 44 l-4 51 41 0 41 0 0 45 0 45 40 0 40 0
0 40 0 40 45 0 45 0 0 165 0 165 -34 0 -34 0 49 127 c27 70 49 134 49 143 -2
45 -194 153 -400 224 -114 40 -125 46 -128 70 -3 25 -6 26 -68 26 -81 0 -104
11 -104 50 0 29 -1 30 -49 30 -45 0 -52 3 -91 46 -23 25 -40 48 -37 50 3 3 70
37 149 76 l143 70 -54 49 c-100 93 -212 160 -309 184 -60 15 -416 38 -1257 80
-567 29 -849 45 -1385 81 -206 13 -447 29 -535 35 -139 8 -435 28 -1045 69
-85 6 -357 24 -605 40 -247 17 -515 34 -595 40 -80 5 -248 17 -375 25 -126 9
-493 33 -815 55 -660 45 -877 54 -936 39z m566 -348 c43 -8 42 -9 -27 -10 -39
0 -75 4 -78 9 -7 12 40 12 105 1z m1970 -2456 c36 -33 85 -77 109 -98 l45 -37
-153 0 -153 0 -39 39 c-63 63 -48 125 43 170 48 24 37 29 148 -74z m-240 -401
c0 -14 -3 -14 -15 -4 -8 7 -15 14 -15 16 0 2 7 4 15 4 8 0 15 -7 15 -16z m80
-74 c0 -5 -2 -10 -4 -10 -3 0 -8 5 -11 10 -3 6 -1 10 4 10 6 0 11 -4 11 -10z
m-2250 -1016 c184 -80 339 -150 343 -154 10 -9 -271 -352 -285 -348 -5 2 -109
131 -232 287 l-223 284 21 39 c12 21 25 38 31 38 5 0 161 -66 345 -146z m7750
-4354 l0 -40 85 0 85 0 0 -40 c0 -36 3 -40 25 -40 14 0 25 -3 25 -7 0 -5 -34
-114 -76 -243 -42 -129 -78 -247 -80 -262 -1 -16 -35 -191 -73 -391 -117 -601
-130 -687 -141 -876 -5 -97 -10 -192 -10 -211 0 -31 -29 8 -256 350 -371 561
-414 631 -414 680 0 36 -3 40 -24 40 -38 0 -56 35 -56 107 l0 62 -42 3 -43 3
-3 248 -2 247 45 0 45 0 0 80 0 80 40 0 40 0 0 45 0 45 40 0 40 0 0 40 0 40
85 0 85 0 0 40 0 40 290 0 290 0 0 -40z m180 -3360 l-1 -2760 -159 0 -160 0 0
205 0 205 -22 0 c-13 1 -367 33 -788 73 -733 70 -765 74 -763 92 29 282 126
1171 129 1173 1 2 77 -6 168 -18 l166 -23 0 -63 0 -64 170 0 170 0 0 40 c0 22
4 40 8 40 5 0 193 -25 419 -55 226 -30 418 -55 427 -55 14 0 15 83 9 838 -5
821 3 1378 28 1787 17 284 98 1317 104 1323 4 4 50 15 88 21 4 0 7 -1241 7
-2759z m-13010 2095 c0 -22 -4 -25 -40 -25 l-40 0 0 -165 0 -165 -45 0 -45 0
0 -44 c0 -41 -2 -44 -31 -50 -17 -3 -44 -6 -59 -6 l-27 0 -6 107 c-10 163 -8
235 8 290 20 68 48 80 198 82 86 1 87 1 87 -24z m11500 -360 l0 -85 40 0 40 0
0 -40 0 -40 210 0 210 0 0 27 c0 23 5 20 41 -33 54 -76 117 -165 327 -461 320
-449 334 -503 330 -1248 -2 -340 0 -469 10 -528 8 -43 12 -81 9 -83 -4 -4
-1423 295 -1435 302 -1 0 29 455 68 1010 38 555 72 1047 75 1094 11 165 12
170 46 170 l29 0 0 -85z m1840 -2037 c36 -62 67 -116 68 -120 2 -4 -15 -8 -37
-8 l-41 0 0 -40 0 -40 -40 0 -40 0 0 -45 0 -45 -40 0 -40 0 0 -40 c0 -22 -4
-40 -10 -40 -5 0 -10 10 -10 23 0 27 39 418 43 431 3 8 59 33 77 35 3 0 34
-50 70 -111z m-11970 -2648 c0 -53 -2 -60 -20 -60 -17 0 -20 7 -20 40 l0 40
-82 0 c-45 0 -78 3 -74 7 6 7 133 29 179 32 14 1 17 -8 17 -59z m2770 -5 l0
-55 -70 0 -70 0 0 -45 0 -45 -125 0 -125 0 0 -40 0 -40 -415 0 -415 0 0 40 0
40 -172 1 -173 1 100 14 c210 29 1411 182 1438 183 26 1 27 0 27 -54z m-2640
-2434 c0 -22 4 -41 9 -43 4 -1 20 -246 35 -543 14 -297 28 -553 30 -570 3 -24
-60 -219 -119 -367 -6 -14 -19 -18 -66 -18 l-59 0 0 40 0 40 -40 0 -40 0 0 85
0 85 -40 0 -40 0 0 413 0 413 30 17 c17 10 30 24 30 31 0 19 -43 120 -52 124
-4 2 -8 21 -8 43 0 39 0 39 40 39 l40 0 0 85 0 85 40 0 40 0 0 40 0 40 85 0
85 0 0 -39z m1652 -1337 l58 -29 -41 -48 c-28 -32 -48 -47 -65 -47 -22 0 -24
4 -24 45 l0 45 -80 0 -80 0 0 40 0 40 -45 0 -45 0 0 55 0 54 133 -63 c72 -34
158 -76 189 -92z m5273 -442 c80 -95 145 -175 145 -178 0 -2 -16 -4 -35 -4
-35 0 -35 0 -35 45 l0 45 -85 0 -85 0 0 40 0 40 -61 0 c-54 0 -61 2 -56 18 24
89 53 171 59 169 4 -1 73 -80 153 -175z m189 -227 l27 -35 -30 0 c-29 0 -31 3
-31 35 0 19 2 35 4 35 2 0 16 -16 30 -35z m156 -186 c0 -5 -4 -9 -10 -9 -5 0
-10 7 -10 16 0 8 5 12 10 9 6 -3 10 -10 10 -16z m-2101 -961 c0 -28 -2 -30 -9
-13 -12 28 -12 45 0 45 6 0 10 -15 9 -32z m78 -240 c-3 -8 -6 -5 -6 6 -1 11 2
17 5 13 3 -3 4 -12 1 -19z m2308 -358 c204 -44 257 -51 386 -51 133 0 257 15
393 46 38 9 70 15 72 13 1 -2 -46 -35 -107 -72 -103 -66 -109 -71 -109 -103 0
-25 4 -33 18 -33 20 0 233 17 315 25 l57 6 0 -61 0 -60 -40 0 -40 0 0 -40 0
-40 -40 0 -40 0 0 -45 0 -45 -45 0 -45 0 0 -40 0 -40 -472 0 c-277 0 -500 -4
-538 -11 -65 -10 -79 -15 -202 -83 -132 -73 -247 -102 -558 -141 -168 -21
-226 -31 -367 -62 l-23 -5 0 191 0 191 40 0 40 0 0 45 0 45 -40 0 -40 0 0 94
0 94 63 6 c34 3 114 8 177 11 222 11 546 35 610 46 36 6 134 33 219 61 198 64
247 74 316 58z m-9855 -1070 c0 -6 -7 -54 -16 -108 -37 -228 20 -416 158 -518
32 -23 94 -57 138 -75 l80 -33 0 -268 c0 -147 -2 -268 -4 -268 -3 0 -38 12
-78 26 -365 131 -572 384 -604 735 -17 193 69 354 257 482 57 38 69 43 69 27z
m9380 -20 c0 -28 -2 -30 -40 -30 l-40 0 0 -45 0 -45 -125 0 -125 0 0 -40 0
-40 -85 0 -85 0 0 40 0 40 -80 0 -80 0 0 45 0 45 -47 1 c-45 1 -46 2 -18 10
17 5 185 17 375 28 190 10 346 19 348 20 1 0 2 -12 2 -29z m-8682 -936 c18 -5
22 -13 22 -50 l0 -44 -45 0 -45 0 0 -45 0 -45 -40 0 c-38 0 -40 -1 -40 -32 l0
-33 -20 25 c-37 46 -36 67 5 126 62 90 102 114 163 98z m8742 -38 c0 -29 28
-379 36 -453 l5 -53 45 0 44 0 0 83 c0 45 3 146 7 225 6 140 6 142 30 142 21
0 23 -4 23 -45 l0 -45 45 0 45 0 0 -40 c0 -30 4 -40 16 -40 14 0 15 -19 10
-177 -3 -98 -9 -493 -13 -878 -5 -385 -9 -661 -11 -612 l-3 87 -44 0 -45 0 0
80 0 80 -30 0 c-23 0 -31 5 -34 23 -3 12 -12 193 -21 402 -9 209 -19 391 -22
405 -11 42 -21 -71 -33 -375 -6 -154 -13 -282 -16 -284 -2 -2 -4 14 -4 37 l0
42 -45 0 -45 0 0 45 0 45 -40 0 -40 0 0 40 0 40 -80 0 -80 0 1 38 c0 20 8 132
18 247 10 116 16 212 15 214 -2 2 -90 -15 -196 -38 -106 -23 -208 -41 -225
-41 l-33 0 0 290 0 290 40 0 40 0 0 40 0 40 40 0 40 0 0 45 0 45 45 0 45 0 0
40 0 40 235 0 235 0 0 -24z m-8970 -643 l0 -118 -36 63 c-20 35 -34 65 -32 66
1 2 16 10 33 19 l30 15 -53 32 c-28 18 -52 35 -52 36 0 2 25 4 55 4 l55 0 0
-117z m8500 -329 c43 -18 45 -20 30 -58 -9 -24 -15 -26 -65 -26 -30 0 -55 4
-55 10 0 19 32 90 41 90 5 0 27 -7 49 -16z m-8827 -994 l77 -23 0 -78 0 -79
40 0 40 0 0 -80 0 -80 40 0 40 0 0 -45 0 -45 45 0 45 0 0 -40 0 -40 40 0 c22
0 40 -4 40 -8 0 -4 -9 -25 -20 -47 -47 -93 -9 -154 122 -195 40 -13 81 -30 91
-40 32 -30 44 -84 35 -158 -13 -101 -3 -150 39 -189 19 -18 41 -33 49 -33 10
0 14 -12 14 -40 l0 -40 45 0 45 0 0 -95 c0 -52 -3 -95 -6 -95 -20 0 -287 117
-426 186 -300 152 -439 261 -508 401 -29 57 -35 81 -38 154 -5 99 11 167 61
263 30 57 32 68 31 156 -1 54 -11 137 -23 194 -24 114 -26 130 -8 123 6 -2 47
-14 90 -27z m2132 13 c105 -8 227 -18 273 -20 l82 -4 0 -40 0 -39 85 0 85 0 0
-45 0 -45 40 0 40 0 0 -40 0 -40 85 0 85 0 0 -40 0 -40 40 0 40 0 0 -85 c0
-83 1 -85 24 -85 23 0 23 -2 15 -42 -49 -222 -177 -463 -333 -625 l-79 -83
-103 0 -104 0 0 40 0 40 -125 0 -125 0 0 45 0 44 -127 4 c-71 1 26 4 214 5
l342 2 7 45 c3 25 5 47 3 49 -2 2 -51 27 -109 56 -58 29 -107 54 -109 56 -2 2
32 43 76 91 l80 88 -34 52 -35 52 -66 -43 c-37 -24 -113 -73 -170 -109 -56
-37 -105 -67 -107 -67 -3 0 29 68 70 150 41 83 73 150 71 150 -2 0 -55 -27
-118 -59 -120 -63 -220 -100 -339 -128 -90 -20 -360 -23 -429 -4 -25 7 -56 15
-70 17 -77 16 -70 1 -70 134 l0 120 45 0 45 0 0 85 0 85 40 0 40 0 0 40 0 40
85 0 85 0 0 45 0 45 80 0 80 0 0 40 0 40 85 0 c78 0 85 2 85 20 0 24 -15 24
225 3z m7198 -1273 c10 -41 21 -132 24 -202 5 -115 4 -128 -11 -128 -12 0 -16
-10 -16 -45 l0 -45 -45 0 -45 0 0 -40 c0 -36 -3 -40 -24 -40 -22 0 -26 7 -46
93 -11 50 -23 100 -26 110 -7 22 -75 52 -84 36 -4 -6 -43 -100 -86 -210 l-79
-199 -32 0 c-32 0 -33 -2 -33 -40 l0 -40 -85 0 -85 0 0 40 0 40 -125 0 -125 0
0 45 0 45 -40 0 -40 0 0 40 0 40 40 0 40 0 0 40 0 40 40 0 40 0 0 45 c0 53 -6
52 160 34 57 -5 107 -6 111 -2 4 4 11 31 14 59 7 46 5 52 -14 57 -15 3 -21 13
-21 31 0 24 3 26 45 26 l45 0 0 45 0 45 40 0 40 0 0 40 0 40 85 0 85 0 0 40 0
41 117 -3 118 -3 18 -75z m-5753 -125 l0 -45 165 0 165 0 0 -40 0 -40 40 0 40
0 0 -40 0 -40 45 0 45 0 0 -85 0 -85 30 0 c17 0 30 -3 30 -7 0 -3 -18 -30 -40
-59 -80 -106 -215 -199 -365 -250 -66 -23 -98 -28 -185 -28 -97 -1 -109 1
-165 29 -78 39 -100 79 -126 223 -10 59 -21 122 -24 140 -7 39 -20 40 -86 7
-58 -30 -125 -94 -144 -138 -13 -29 -14 -13 -15 151 l0 182 45 0 45 0 0 40 0
40 40 0 40 0 0 45 0 45 210 0 210 0 0 -45z m-583 -617 c-3 -8 -6 -5 -6 6 -1
11 2 17 5 13 3 -3 4 -12 1 -19z m458 -279 l170 -58 -147 0 -148 -1 0 40 0 40
-85 0 -85 0 0 49 0 50 63 -31 c34 -18 139 -58 232 -89z m-3295 -1394 l0 -85
40 0 40 0 0 -41 0 -40 -97 7 c-54 3 -102 9 -107 12 -12 7 0 114 21 179 l17 53
43 0 43 0 0 -85z m163 -172 c-7 -2 -21 -2 -30 0 -10 3 -4 5 12 5 17 0 24 -2
18 -5z m837 -623 l0 -40 40 0 40 0 0 -40 0 -40 85 0 85 0 0 -45 0 -45 165 0
165 0 0 45 0 45 335 0 335 0 0 -45 0 -45 40 0 c40 0 40 0 40 -39 0 -35 3 -40
24 -43 l25 -3 -19 -55 c-23 -69 -73 -115 -149 -137 -60 -17 -164 -15 -371 8
-72 7 -243 9 -546 5 l-442 -7 49 238 c62 304 56 283 79 283 17 0 20 -7 20 -40z
m1580 -555 c0 -8 -7 -15 -15 -15 -8 0 -15 7 -15 15 0 8 7 15 15 15 8 0 15 -7
15 -15z m1078 -140 c75 -18 222 -73 222 -84 0 -4 -73 -44 -162 -89 -243 -123
-378 -147 -535 -96 l-52 17 47 60 c140 178 288 237 480 192z m-2565 -921 l237
-38 0 -31 c0 -16 -22 -304 -50 -640 -27 -335 -48 -610 -47 -611 1 -1 62 -13
134 -25 l133 -24 0 -152 0 -153 -32 0 c-94 0 -361 31 -413 48 -33 10 -108 40
-167 67 l-108 48 0 426 c0 234 3 585 7 780 l6 353 31 -5 c17 -3 138 -22 269
-43z m11984 -646 c-4 -29 -14 -194 -23 -366 -10 -171 -21 -317 -25 -323 -4 -8
-19 -3 -45 15 l-39 27 -100 -106 c-93 -98 -103 -106 -137 -105 l-38 0 0 125 0
125 -45 0 -45 0 0 80 0 80 45 0 45 0 0 125 0 125 40 0 40 0 0 85 0 85 85 0 85
0 0 40 0 40 81 0 81 0 -5 -52z m-11747 -2013 c0 -247 -1 -269 -20 -305 -16
-32 -26 -40 -48 -40 -15 0 -111 34 -212 76 -102 42 -197 80 -212 86 -16 5 -28
12 -28 15 0 3 16 35 35 73 49 92 121 169 218 234 76 50 226 124 255 125 9 1
12 -58 12 -264z m-122 -465 l42 0 0 -65 0 -65 -85 0 -85 0 0 -45 c0 -41 -2
-45 -25 -45 l-25 0 0 116 0 117 68 -6 c37 -4 86 -7 110 -7z m-801 -341 l88
-44 3 -42 3 -43 -85 0 -86 0 0 -40 0 -40 -80 0 -80 0 0 -44 0 -44 -57 -6 c-32
-4 -76 -9 -98 -12 -39 -5 -42 -4 -72 38 l-31 43 92 112 c50 62 109 126 131
143 38 29 44 31 112 27 60 -3 85 -11 160 -48z m-997 -359 c358 -56 498 -154
547 -384 18 -87 12 -416 -12 -596 -8 -63 -15 -116 -15 -117 0 -2 -85 -3 -189
-3 -188 0 -189 0 -194 23 -3 12 -54 236 -112 497 -58 261 -110 491 -114 510
-23 92 -23 92 -4 87 10 -3 52 -11 93 -17z m670 -265 l0 -85 45 0 45 0 0 -40 0
-40 40 0 40 0 0 -45 0 -45 40 0 40 0 0 -80 0 -80 45 0 45 0 0 -45 0 -45 -45 0
-45 0 0 -80 0 -80 -40 0 -40 0 0 -47 c0 -25 -2 -44 -5 -41 -10 10 -233 823
-228 830 2 5 17 8 34 8 l29 0 0 -85z m11038 -48 l21 -22 -51 -133 -51 -132
-104 0 c-88 0 -103 -2 -103 -16 0 -13 -7 -15 -27 -11 -16 3 -77 13 -138 22
-60 10 -113 21 -117 24 -7 6 518 290 538 291 6 0 20 -10 32 -23z m-6288 -487
l0 -450 -415 0 -415 0 0 160 0 160 40 0 40 0 0 40 0 40 45 0 45 0 0 40 0 40
80 0 80 0 0 45 0 45 45 0 45 0 0 40 0 40 40 0 40 0 0 40 0 40 85 0 85 0 0 45
0 45 40 0 40 0 0 40 0 40 40 0 40 0 0 -450z m6859 -910 c-6 -16 -13 -30 -15
-30 -2 0 -4 14 -4 30 0 20 5 30 14 30 12 0 13 -6 5 -30z m-736 -227 c-13 -2
-35 -2 -50 0 -16 2 -5 4 22 4 28 0 40 -2 28 -4z m-4571 -848 c11 -4 10 -53 -4
-288 -10 -155 -22 -408 -27 -562 -14 -399 -22 -439 -105 -487 -40 -22 -47 -23
-276 -22 -129 0 -288 4 -352 8 l-118 8 0 49 0 49 390 0 390 0 0 625 0 625 44
0 c24 0 50 -2 58 -5z m-533 -151 c177 -37 242 -111 271 -309 5 -38 10 -176 10
-306 0 -189 -3 -245 -16 -282 -19 -56 2 -51 -299 -72 -121 -8 -241 -18 -267
-21 l-48 -6 0 166 0 166 40 0 40 0 0 125 0 125 45 0 45 0 0 165 0 165 -45 0
-45 0 0 45 0 45 -40 0 c-24 0 -40 5 -40 12 0 15 249 3 349 -18z m-5166 -2601
c53 -250 71 -472 64 -768 -7 -250 -14 -337 -53 -610 -24 -167 -101 -608 -123
-700 -6 -26 -9 350 -10 1058 l-1 1097 53 0 54 0 16 -77z m1076 -1473 c528 -36
737 -54 743 -63 13 -21 38 -144 38 -189 -1 -94 -62 -165 -161 -187 -26 -6
-109 -15 -185 -21 -76 -6 -167 -17 -203 -25 -35 -9 -65 -14 -66 -13 -1 2 -19
89 -39 193 -20 105 -39 197 -42 205 -3 9 -27 -27 -58 -87 -88 -168 -172 -262
-284 -318 -84 -42 -82 -44 -82 110 l0 135 -45 0 -45 0 0 45 0 45 -40 0 -40 0
0 40 0 40 -40 0 -40 0 0 40 0 40 -85 0 c-47 0 -85 3 -85 8 0 4 -3 17 -6 30 -5
17 -2 22 12 22 11 0 350 -23 753 -50z m2221 -263 c0 -2 -13 -16 -30 -32 l-30
-29 0 32 c0 29 3 32 30 32 17 0 30 -1 30 -3z"/>
<path d="M23565 42098 c-11 -30 -175 -852 -172 -861 4 -14 165 183 209 256 60
99 83 177 83 282 -1 99 -16 156 -72 268 -34 69 -40 76 -48 55z"/>
<path d="M26659 41476 c-87 -25 -121 -45 -146 -83 -17 -26 -18 -116 -21 -1590
l-2 -1563 -65 0 -65 0 0 -40 c0 -36 -2 -40 -26 -40 l-25 0 36 63 c20 34 43 77
51 96 l15 33 -56 59 c-103 108 -129 212 -119 474 3 77 1 163 -4 190 -6 35 -11
-60 -16 -327 l-8 -377 -57 26 c-117 54 -218 93 -266 103 -46 9 -348 49 -352
46 -1 -1 101 -125 227 -276 l228 -275 -37 -7 c-20 -4 -100 -7 -178 -7 -78 0
-160 -5 -182 -11 -91 -24 -131 -94 -113 -199 6 -31 9 -57 8 -57 0 -1 -70 -54
-154 -118 l-153 -117 -105 -21 -105 -21 -58 62 c-107 111 -199 135 -411 106
-68 -10 -152 -15 -185 -13 l-60 5 5 -93 5 -94 -202 0 -203 0 0 -30 c0 -16 -4
-30 -8 -30 -4 0 -66 20 -137 44 l-130 44 35 15 c19 9 125 54 235 101 l200 85
-2 31 c0 17 -4 34 -7 37 -4 4 -396 62 -428 63 -7 0 -14 42 -23 141 l-6 66 -77
-13 c-162 -28 -269 -74 -308 -131 -50 -75 -39 -156 60 -432 153 -423 204 -714
178 -1023 -20 -236 -15 -306 46 -618 l28 -145 63 -8 c35 -4 65 -6 68 -4 7 8
73 325 88 425 8 54 15 142 15 197 0 116 11 163 52 222 38 55 58 56 58 3 l0
-40 45 0 45 0 0 -40 0 -40 205 0 205 0 0 40 0 40 228 -2 227 -3 8 -129 c10
-172 44 -536 51 -543 9 -9 102 64 155 122 157 172 211 385 156 608 -7 27 -7
27 44 27 l51 0 0 45 0 45 85 0 85 0 0 40 0 40 415 0 415 0 0 40 0 40 125 0
125 0 0 45 0 45 40 0 40 0 0 40 0 40 85 0 85 0 0 85 0 85 40 0 40 0 0 40 0 40
45 0 45 0 0 125 0 125 40 0 40 0 0 85 0 85 40 0 40 0 0 203 0 203 35 -4 c20
-2 70 5 113 17 51 14 236 38 552 71 261 28 556 59 655 70 98 10 181 18 183 16
5 -5 -231 -822 -290 -1005 -74 -231 -215 -602 -417 -1100 -100 -244 -179 -446
-177 -448 5 -6 134 150 217 262 182 246 351 562 518 965 153 370 199 477 282
652 107 227 128 322 94 434 -22 74 -69 138 -138 189 -34 25 -69 51 -77 59 -8
8 -37 74 -65 147 -27 72 -55 133 -61 136 -7 2 -113 -23 -236 -56 -294 -81
-441 -113 -508 -114 -44 -1 -75 8 -155 44 l-100 44 -135 -1 c-165 -1 -279 -26
-388 -84 -68 -37 -79 -40 -153 -40 l-79 0 0 45 c0 44 -1 45 -32 45 l-31 0 6
328 c8 396 22 2842 16 2841 -2 0 -38 -10 -80 -23z m431 -3482 c0 -2 -13 -4
-30 -4 -20 0 -30 5 -30 14 0 12 6 13 30 5 17 -6 30 -13 30 -15z m-1390 -524
l0 -60 -44 0 c-38 0 -45 -3 -48 -22 -3 -24 -43 -40 -147 -62 -105 -22 -181 6
-241 87 l-31 42 38 3 c32 3 86 14 308 65 11 3 53 5 93 6 l72 1 0 -60z"/>
<path d="M14250 40282 c-98 -79 -350 -336 -527 -538 -821 -940 -1888 -2406
-2239 -3079 -78 -148 -100 -200 -82 -189 63 38 185 133 238 185 40 40 405 517
951 1244 1014 1350 1147 1525 1197 1578 96 101 341 316 348 305 4 -6 9 -66 12
-132 5 -125 -8 -212 -67 -473 -10 -46 -17 -83 -15 -83 2 0 29 50 59 111 108
216 184 299 274 299 41 0 130 -34 162 -62 31 -27 422 -745 438 -803 5 -22 27
-107 47 -190 77 -317 219 -606 388 -790 l56 -60 -56 165 c-50 147 -189 501
-302 770 -38 92 -41 96 -83 110 -34 12 -45 22 -51 45 -4 17 -17 190 -28 385
-11 195 -23 370 -26 388 -6 39 -3 39 -200 4 l-150 -28 30 60 c28 53 31 69 31
145 0 77 -3 93 -32 151 -18 36 -75 118 -127 183 -115 146 -145 199 -160 289
l-12 70 -74 -60z"/>
<path d="M22635 37653 c-218 -5 -410 -22 -476 -43 -117 -36 -210 -121 -301
-275 -19 -33 -74 -135 -121 -228 l-85 -167 66 -39 67 -39 22 64 c23 70 29 79
82 137 63 68 142 99 374 147 167 35 257 65 321 109 77 54 133 140 155 241 19
88 19 90 13 92 -4 2 -56 2 -117 1z"/>
<path d="M15450 37486 c0 -3 74 -159 164 -348 315 -662 475 -995 556 -1163 45
-93 95 -197 110 -230 15 -33 87 -184 160 -335 73 -151 147 -306 165 -345 46
-100 515 -1077 680 -1420 42 -88 90 -188 106 -223 l28 -62 58 25 c31 14 59 28
61 30 3 2 -1 32 -7 65 -8 40 -62 166 -155 363 -379 799 -1301 2728 -1531 3202
-54 110 -114 237 -135 282 -21 45 -49 88 -62 97 -13 8 -59 26 -103 40 -82 26
-95 29 -95 22z"/>
<path d="M37565 36625 c-104 -23 -266 -59 -360 -79 -298 -65 -399 -102 -467
-173 -75 -78 -89 -181 -68 -528 16 -253 19 -247 46 113 10 133 21 242 25 242
4 0 41 -22 82 -50 106 -71 194 -168 249 -276 78 -151 108 -278 148 -634 12
-102 23 -187 26 -189 15 -15 19 40 20 272 l0 262 44 110 c55 141 65 243 30
317 -40 86 -132 151 -290 205 -52 18 -91 32 -87 33 13 0 1294 272 1353 286 20
5 21 8 10 57 -7 31 -17 53 -26 55 -8 1 -228 -49 -488 -111 l-474 -114 -9 25
c-5 14 -6 29 -2 33 4 4 105 46 223 94 118 48 217 89 219 91 7 7 -8 4 -204 -41z"/>
<path d="M38787 35908 c-195 -201 -249 -506 -163 -918 14 -63 35 -147 48 -187
l23 -72 113 90 c62 50 120 105 129 122 13 27 15 53 10 167 -10 199 -69 854
-78 864 -5 6 -40 -22 -82 -66z"/>
<path d="M12620 34435 l0 -1396 43 3 42 3 12 155 c6 85 46 589 87 1120 42 531
76 982 76 1003 0 66 -24 43 -55 -53 -16 -49 -31 -90 -34 -90 -3 0 -26 145 -51
323 l-45 322 -37 3 -38 3 0 -1396z"/>
<path d="M38037 35490 c-131 -32 -239 -59 -241 -61 -8 -9 -36 -464 -36 -579 0
-120 1 -127 30 -176 35 -62 83 -112 115 -120 64 -16 290 60 314 105 25 46 61
383 76 721 4 74 9 143 11 153 7 24 2 23 -269 -43z"/>
<path d="M13100 35495 c0 -19 -9 -115 -21 -213 -23 -194 -27 -392 -10 -462 20
-84 13 -215 -19 -370 -44 -209 -52 -286 -40 -367 15 -95 51 -162 135 -253 89
-95 103 -135 62 -178 -14 -15 -38 -54 -54 -87 -41 -89 -38 -188 11 -355 49
-163 63 -263 49 -326 -10 -42 -9 -53 8 -86 10 -20 19 -50 19 -65 0 -16 -20
-154 -45 -307 -25 -154 -44 -280 -42 -281 8 -7 168 -31 171 -26 2 3 31 101 64
216 107 375 117 453 86 662 -15 96 -15 146 -5 453 14 432 17 460 42 460 18 0
19 10 19 165 0 140 -2 165 -15 165 -13 0 -15 21 -15 128 0 120 -2 130 -29 187
-16 33 -41 79 -56 102 l-26 42 70 49 c39 27 67 52 64 56 -3 3 -21 6 -38 6 -49
0 -123 29 -145 57 -29 37 -25 87 16 199 65 180 58 285 -26 366 -39 38 -64 52
-130 72 -44 14 -85 26 -91 26 -5 0 -9 -16 -9 -35z"/>
<path d="M14441 35323 c-74 -7 -136 -14 -137 -16 -1 -1 -34 -159 -72 -351
l-71 -350 94 -128 c52 -71 95 -132 95 -136 0 -4 -100 -55 -223 -113 -123 -58
-223 -112 -225 -120 -1 -8 3 -22 10 -32 12 -16 41 -17 389 -15 l376 3 -98 260
c-54 142 -95 262 -90 265 93 61 140 97 138 104 -2 4 -32 19 -67 32 -39 15 -77
37 -94 56 -27 29 -28 35 -24 99 6 83 36 136 149 273 l77 91 -36 40 c-20 22
-40 43 -46 46 -6 3 -71 -1 -145 -8z"/>
<path d="M15023 35333 l-33 -4 0 -535 0 -535 43 3 42 3 3 538 c2 427 0 537
-10 535 -7 0 -28 -3 -45 -5z"/>
<path d="M27447 35060 c-11 -28 -119 -521 -115 -525 3 -3 383 -45 408 -45 9 0
22 16 29 38 8 20 16 42 18 48 2 7 -18 14 -53 18 -72 8 -139 38 -182 78 -47 46
-70 120 -83 261 -11 134 -14 149 -22 127z"/>
<path d="M36640 34984 c0 -16 -32 -451 -70 -967 -39 -516 -70 -943 -70 -949 0
-20 40 40 71 105 54 117 100 332 131 617 19 175 16 710 -5 895 -25 223 -57
390 -57 299z"/>
<path d="M18103 34829 c-24 -17 -43 -35 -42 -42 0 -7 85 -163 188 -347 l187
-335 55 3 c96 6 152 21 179 47 14 14 32 25 40 25 26 0 239 -74 243 -85 2 -5 0
-64 -4 -130 -4 -66 -8 -149 -8 -184 l-1 -63 193 5 c151 3 208 9 269 25 163 44
259 121 328 264 l41 83 -403 5 -402 5 101 66 c86 57 126 75 263 120 95 31 155
56 147 60 -36 21 -248 41 -382 37 -135 -4 -144 -6 -275 -51 -74 -26 -138 -47
-141 -47 -3 0 -109 111 -235 247 -126 137 -245 265 -264 285 l-35 37 -42 -30z"/>
<path d="M28895 34336 c-33 -8 -102 -33 -154 -56 l-94 -42 -101 6 c-56 4 -222
18 -371 31 -907 82 -1065 62 -1685 -209 -195 -85 -241 -120 -287 -214 -24 -50
-25 -58 -19 -155 9 -139 38 -395 91 -812 46 -355 53 -401 60 -393 16 16 38
353 44 678 7 315 10 382 25 419 45 119 121 162 339 191 81 10 253 44 383 75
129 30 281 62 337 70 246 37 1395 171 1402 163 4 -4 25 -380 25 -452 l0 -56
-110 0 -110 0 0 25 c0 30 7 30 -190 10 -206 -20 -200 -21 -200 15 l0 30 -125
0 -125 0 0 40 0 40 -85 0 -85 0 0 45 0 45 -250 0 -250 0 0 -45 0 -45 -125 0
-125 0 0 -40 0 -40 -40 0 -40 0 0 -40 0 -40 -85 0 -85 0 0 -45 0 -45 -40 0
c-35 0 -40 -3 -40 -22 0 -19 -10 -26 -62 -42 -47 -15 -75 -32 -114 -70 -74
-72 -85 -115 -91 -343 l-5 -183 -29 0 -29 0 0 -85 0 -85 33 0 33 0 13 -412
c34 -1115 33 -1371 -9 -1865 -11 -128 -20 -248 -20 -267 0 -34 0 -34 49 -38
46 -3 50 -1 54 22 3 14 42 392 87 841 l82 816 -46 67 c-34 50 -46 77 -46 104
0 40 42 123 79 156 l21 19 0 -56 0 -57 40 0 40 0 0 -125 0 -125 40 0 40 0 0
-780 0 -780 60 0 60 0 45 93 c96 197 121 371 111 775 l-6 282 75 0 75 0 0 80
0 80 45 0 45 0 0 45 0 45 40 0 40 0 0 40 0 40 40 0 40 0 0 40 0 40 45 0 45 0
0 45 0 45 40 0 40 0 0 40 0 40 40 0 40 0 0 40 0 40 45 0 45 0 0 45 0 45 80 0
80 0 0 40 0 40 45 0 45 0 0 40 0 40 80 0 80 0 0 45 0 45 45 0 45 0 0 40 0 40
80 0 80 0 0 40 0 40 45 0 45 0 0 45 0 45 40 0 40 0 0 40 0 40 40 0 40 0 0 40
0 40 44 0 43 0 17 58 c9 32 16 70 16 85 0 22 5 27 25 27 23 0 25 4 25 40 l0
40 40 0 40 0 0 45 0 45 45 0 45 0 0 40 0 40 80 0 80 0 0 40 0 40 45 0 45 0 0
45 0 44 318 -246 c174 -135 332 -260 350 -277 19 -17 117 -138 218 -269 108
-140 186 -233 189 -225 3 7 4 240 3 518 l-3 505 -47 3 -48 3 0 -249 0 -249
-114 -18 c-62 -9 -128 -17 -146 -18 l-33 -2 -13 87 c-15 102 -43 161 -198 418
-57 96 -104 175 -103 176 1 1 191 26 422 54 231 29 422 55 424 56 10 8 -9 13
-109 28 -148 21 -315 34 -615 46 -342 14 -393 21 -483 65 -85 42 -187 132
-200 178 -6 18 -13 59 -16 92 -10 87 -42 186 -79 241 -57 87 -151 117 -272 90z
m635 -896 c-26 -36 -80 -44 -80 -11 0 14 11 22 38 29 61 16 65 15 42 -18z"/>
<path d="M38197 34148 c-3 -24 -15 -132 -28 -240 l-23 -198 -61 93 c-33 50
-102 157 -154 237 l-95 145 -53 -549 c-29 -302 -51 -552 -48 -554 11 -11 253
-5 305 7 198 48 270 135 312 376 32 187 32 371 -1 479 -23 74 -97 204 -133
234 -13 10 -16 6 -21 -30z"/>
<path d="M38560 33610 l0 -520 45 0 45 0 0 520 0 520 -45 0 -45 0 0 -520z"/>
<path d="M37270 33878 c-1 -7 -27 -530 -59 -1163 -32 -632 -58 -1150 -57
-1151 0 -1 29 -4 64 -7 l62 -7 0 1170 c0 644 -2 1170 -5 1170 -3 0 -5 -6 -5
-12z"/>
<path d="M14268 33675 c-236 -60 -428 -112 -428 -115 0 -3 116 -45 258 -93
l258 -88 -4 -30 c-2 -16 -10 -29 -16 -29 -16 0 -390 -48 -435 -56 l-33 -5 7
-57 c4 -31 9 -60 11 -63 1 -3 101 7 221 22 120 15 243 30 274 33 l57 7 132
284 c72 157 130 288 128 293 -1 4 -195 -42 -430 -103z"/>
<path d="M38130 32750 c-236 -28 -317 -110 -356 -359 -17 -108 -37 -860 -24
-875 5 -4 69 -7 144 -4 106 3 136 1 136 -9 0 -7 10 -13 23 -14 27 -1 38 2
-798 -259 -374 -117 -683 -214 -686 -216 -6 -3 18 -124 26 -132 2 -2 713 219
1509 470 157 49 158 50 153 76 -3 15 -9 35 -12 45 -7 15 2 17 99 17 l106 0 0
45 0 45 40 0 40 0 0 40 0 40 40 0 40 0 0 45 c0 42 11 58 25 35 6 -10 98 -60
110 -60 3 0 5 203 5 450 l0 450 -56 0 -55 0 -41 -87 c-55 -119 -105 -275 -114
-350 -4 -43 -11 -63 -20 -63 -10 0 -14 13 -14 40 l0 40 -69 0 -69 0 -6 108
c-14 234 -26 409 -32 450 -5 41 -6 42 -42 41 -20 -1 -66 -5 -102 -9z"/>
<path d="M14432 32645 c-165 -26 -261 -49 -306 -72 -17 -9 -63 -41 -102 -72
l-72 -57 29 -31 c57 -64 56 -140 -2 -222 -101 -141 -111 -160 -116 -203 -9
-79 -3 -83 154 -99 203 -21 414 -19 481 4 173 61 204 215 129 647 -16 93 -26
125 -37 126 -8 1 -80 -9 -158 -21z"/>
<path d="M14900 31689 c-140 -28 -590 -116 -1000 -197 l-745 -148 3 -49 c2
-28 5 -52 7 -53 5 -6 2019 399 2028 407 12 12 -7 86 -23 88 -8 1 -130 -21
-270 -48z"/>
<path d="M30567 31493 c-96 -160 -437 -766 -433 -770 9 -9 196 55 281 97 104
51 148 88 181 156 24 49 27 66 26 152 -1 84 -35 358 -46 369 -2 3 -6 1 -9 -4z"/>
<path d="M32167 30658 c-4 -35 -9 -110 -13 -168 l-7 -105 274 -42 c151 -23
277 -39 280 -35 6 6 49 362 49 400 0 9 -64 12 -289 12 l-288 0 -6 -62z"/>
<path d="M27105 30121 c-80 -46 -115 -83 -115 -123 0 -65 8 -76 61 -87 28 -6
151 -11 274 -11 204 0 224 -2 229 -17 3 -10 21 -94 40 -186 20 -93 38 -172 41
-177 3 -5 17 -5 32 -1 26 7 29 13 55 146 15 76 30 140 32 142 3 3 36 5 74 6
51 1 77 -4 96 -17 43 -28 49 -58 36 -173 -9 -77 -9 -111 0 -137 21 -66 19 -67
269 59 199 99 231 118 231 138 -1 61 1 60 -203 107 -106 24 -194 45 -196 46
-2 2 21 46 52 99 53 90 55 95 34 100 -31 7 -426 60 -666 90 -271 33 -312 33
-376 -4z"/>
<path d="M16390 29131 l-805 -116 -3 -30 c-5 -61 -87 -51 956 -117 l362 -22 0
-33 c0 -37 22 -28 -230 -89 -85 -20 -157 -38 -159 -40 -2 -2 0 -19 3 -39 l7
-35 129 0 c109 0 130 -2 130 -15 0 -13 -21 -15 -125 -15 l-125 0 0 -45 0 -45
-125 0 -125 0 0 -40 0 -40 -287 0 -288 1 35 30 c44 38 156 92 236 114 33 9
119 26 190 38 l129 22 23 43 23 42 -435 0 -436 0 0 33 c1 17 7 78 14 135 7 56
10 102 7 102 -20 1 -588 -186 -583 -192 4 -3 77 -38 162 -78 85 -39 159 -75
164 -80 12 -12 -61 -45 -131 -60 l-51 -11 -31 -112 c-47 -173 -90 -357 -112
-485 -16 -97 -18 -128 -9 -182 17 -105 46 -214 57 -217 6 -2 89 10 184 26 95
17 174 29 176 27 2 -2 52 -332 110 -734 59 -402 109 -730 111 -728 2 2 10 46
17 97 35 227 65 700 65 1006 l0 163 120 0 120 0 0 -40 0 -40 65 0 64 0 3 -87
3 -87 60 84 c70 98 81 102 168 70 48 -18 57 -25 57 -46 0 -23 2 -24 73 -24
l72 0 -112 -66 c-70 -42 -113 -73 -113 -83 0 -9 5 -33 11 -54 9 -35 13 -38 37
-33 15 3 130 22 256 41 184 28 257 35 377 35 l149 0 0 40 c0 40 0 40 39 40 32
0 38 -3 35 -17 -3 -10 -8 -238 -13 -508 -8 -459 -10 -494 -30 -556 -37 -115
-102 -180 -215 -214 l-44 -14 -248 350 c-153 215 -254 349 -264 349 -17 0
-382 -79 -387 -83 -1 -2 178 -123 398 -270 320 -213 396 -268 382 -275 -10 -5
-123 -46 -251 -93 l-233 -84 6 -29 c3 -16 7 -31 9 -34 7 -6 926 -86 931 -80 2
2 9 179 15 393 6 215 15 496 20 625 5 129 12 345 15 480 8 316 7 310 50 310
l35 0 0 415 0 415 -26 0 -25 0 6 113 c4 91 25 792 25 875 0 18 -5 22 -32 21
-18 -1 -395 -53 -838 -118z m740 -581 c0 -33 -4 -60 -10 -60 -5 0 -10 20 -10
45 l0 45 -40 0 c-29 0 -40 4 -40 15 0 11 12 15 50 15 l50 0 0 -60z"/>
<path d="M26076 29103 c-3 -10 -8 -34 -11 -53 -5 -34 -4 -36 105 -125 154
-126 203 -150 305 -150 72 0 86 3 141 33 77 42 195 148 174 156 -16 6 -690
156 -702 156 -4 0 -9 -8 -12 -17z"/>
<path d="M12127 28453 c-158 -85 -286 -157 -284 -159 2 -3 120 2 263 10 142 8
260 13 263 11 2 -3 -13 -79 -33 -171 -21 -91 -36 -167 -33 -170 10 -10 105 76
134 122 53 83 66 141 60 257 -5 113 -42 250 -67 254 -8 1 -145 -68 -303 -154z"/>
<path d="M11723 27913 c-212 -91 -363 -162 -363 -169 0 -8 10 -33 21 -57 l22
-44 249 95 c137 51 252 91 256 87 12 -11 6 -188 -7 -245 -49 -199 -184 -301
-431 -326 -38 -3 -70 -9 -70 -11 0 -3 7 -32 16 -66 21 -82 46 -128 89 -165 29
-26 44 -32 83 -32 52 0 129 32 178 73 18 15 34 27 37 27 3 0 40 -61 82 -135
43 -74 80 -135 84 -135 7 0 31 75 121 380 106 359 130 536 92 685 -25 99 -67
195 -84 194 -7 0 -176 -71 -375 -156z"/>
<path d="M32910 26636 l0 -756 24 0 c13 0 38 -3 55 -6 l31 -6 0 750 c0 413 -3
753 -7 755 -5 3 -29 8 -55 11 l-48 7 0 -755z"/>
<path d="M32190 27348 c0 -2 58 -46 129 -97 l128 -94 -58 -29 c-62 -31 -115
-83 -125 -123 -11 -44 5 -89 71 -201 36 -60 67 -122 69 -139 3 -16 9 -70 15
-119 6 -48 34 -187 63 -307 59 -245 48 -228 143 -211 l40 7 3 415 c2 228 4
483 5 565 2 148 2 151 -26 197 -33 57 -88 91 -177 112 -63 15 -280 34 -280 24z"/>
<path d="M33410 27203 c-33 -12 -143 -131 -171 -185 -106 -208 -144 -618 -71
-767 18 -37 33 -42 81 -27 l24 8 -22 -31 c-40 -56 -109 -215 -122 -279 -28
-147 14 -277 120 -374 53 -48 186 -126 197 -115 2 2 -38 91 -90 198 -94 194
-94 194 -73 209 55 37 112 99 129 138 31 69 13 122 -72 216 l-52 55 71 448
c39 247 73 463 76 481 6 32 3 35 -25 25z"/>
<path d="M36650 26459 c0 -65 25 -167 47 -191 8 -9 59 -38 112 -64 166 -81
263 -203 311 -391 42 -160 60 -909 60 -2375 l0 -1028 65 0 65 0 2 1543 c1 848
0 1698 -2 1890 -1 199 1 347 6 347 5 -1 227 21 493 47 l483 48 -6 59 c-3 33
-8 62 -11 64 -6 7 -589 -53 -770 -79 -77 -11 -198 -32 -269 -46 -171 -33 -295
-30 -373 10 -70 36 -113 75 -159 144 -21 32 -42 62 -46 68 -4 5 -8 -16 -8 -46z"/>
<path d="M11942 26336 c-33 -72 -76 -170 -98 -218 -21 -48 -41 -85 -45 -82 -4
2 -10 31 -14 64 -4 33 -10 62 -15 65 -11 7 -79 -45 -124 -95 -48 -53 -83 -130
-98 -211 -8 -50 -7 -102 7 -255 10 -106 15 -202 12 -213 -3 -12 0 -21 6 -21 7
0 77 5 157 10 180 13 257 34 323 91 86 74 82 47 82 533 l0 430 -67 17 -67 16
-59 -131z"/>
<path d="M38623 25862 c-18 -119 -62 -412 -98 -651 -36 -239 -63 -436 -61
-438 9 -9 58 31 90 76 72 99 130 247 161 412 33 182 36 473 6 629 -13 65 -50
178 -60 184 -3 3 -21 -93 -38 -212z"/>
<path d="M32394 25973 c-4 -27 -14 -95 -23 -153 l-16 -105 -78 98 c-43 53 -82
95 -87 92 -4 -3 -40 -63 -78 -133 l-71 -128 17 -47 c9 -26 21 -47 27 -47 32 2
657 187 657 195 1 8 -204 175 -314 256 l-27 19 -7 -47z"/>
<path d="M37991 25840 c-74 -99 -143 -237 -170 -344 -39 -151 -45 -281 -26
-570 9 -144 19 -263 21 -265 9 -10 206 39 276 68 126 53 185 117 209 231 15
70 0 150 -61 326 -27 78 -76 247 -111 375 -34 129 -65 240 -69 248 -5 9 -26
-12 -69 -69z"/>
<path d="M36526 25866 c-50 -18 -61 -26 -68 -50 -4 -17 -14 -183 -23 -370 -8
-188 -26 -519 -40 -736 -32 -522 -45 -800 -45 -1000 0 -95 -6 -206 -15 -260
-44 -286 -49 -341 -37 -424 15 -102 57 -191 123 -261 50 -53 156 -132 165
-123 2 3 3 734 2 1625 l-3 1620 -59 -21z"/>
<path d="M16292 25290 c-85 -23 -193 -77 -250 -125 -49 -43 -75 -102 -118
-274 -19 -75 -37 -143 -39 -152 -4 -13 25 -20 192 -44 109 -15 204 -31 211
-35 13 -6 -82 -104 -261 -270 -40 -37 -54 -56 -45 -61 28 -15 210 -39 296 -39
96 0 165 17 214 51 32 23 38 24 38 4 0 -11 11 -15 40 -15 l40 0 0 -45 0 -45
45 0 45 0 0 45 0 45 41 0 c33 0 52 -9 99 -45 32 -25 62 -45 66 -45 11 0 -3
718 -16 790 -24 136 -70 187 -225 246 -96 37 -265 44 -373 14z m361 -196 c86
-3 157 -10 157 -15 0 -7 -69 -329 -85 -396 -5 -20 -12 -23 -60 -23 l-55 0 0
-40 c0 -36 -3 -40 -24 -40 -20 0 -47 27 -125 123 l-100 122 32 3 c18 1 104 6
192 10 100 4 159 11 156 17 -2 6 -82 51 -177 100 -96 50 -174 93 -174 97 0 4
5 19 10 33 10 25 14 27 53 22 23 -4 113 -9 200 -13z"/>
<path d="M11560 25104 c-6 -14 -10 -29 -10 -34 0 -5 61 -39 135 -77 l135 -68
2 -275 3 -275 34 0 35 0 68 364 c37 201 66 366 64 368 -3 3 -344 23 -409 23
-42 0 -49 -3 -57 -26z"/>
<path d="M30661 24437 c-33 -54 -70 -142 -97 -236 -21 -69 -27 -115 -31 -231
-6 -172 5 -246 77 -555 27 -116 56 -249 64 -295 13 -78 14 -22 15 633 1 394
-1 717 -3 717 -2 0 -14 -15 -25 -33z"/>
<path d="M37949 24407 c-72 -27 -113 -70 -136 -145 -16 -52 -36 -470 -37 -782
-1 -165 1 -193 21 -256 28 -89 77 -164 123 -186 24 -12 59 -18 111 -18 124 0
203 51 246 161 16 40 18 99 21 621 l3 576 -73 17 c-100 23 -233 29 -279 12z"/>
<path d="M16475 24125 c-543 -45 -1637 -133 -1760 -141 -92 -7 -98 -8 -70 -20
51 -21 272 -62 425 -80 174 -20 575 -14 759 10 326 44 811 152 1096 244 l60
20 -55 0 c-30 0 -235 -15 -455 -33z"/>
<path d="M38620 23540 l0 -620 35 0 35 0 0 620 0 620 -35 0 -35 0 0 -620z"/>
<path d="M32840 22815 c0 -360 2 -655 5 -655 8 0 282 176 353 227 70 50 126
118 144 176 11 36 10 39 -23 74 -53 56 -117 93 -161 93 -31 0 -47 -8 -83 -42
-25 -22 -62 -63 -82 -90 -29 -40 -38 -47 -45 -35 -16 30 -20 163 -8 277 32
307 29 412 -16 510 -28 62 -65 120 -76 120 -5 0 -8 -295 -8 -655z"/>
<path d="M37810 22473 c-25 -1 -64 -5 -87 -9 l-43 -5 0 -84 c0 -99 -22 -86
183 -109 76 -9 146 -20 156 -26 22 -11 36 -75 26 -118 -5 -25 -20 -36 -113
-80 -59 -28 -147 -69 -197 -90 l-90 -38 -3 -356 -2 -356 44 -6 c257 -39 399
23 466 201 28 75 54 457 46 678 -8 224 -37 311 -120 360 -39 23 -152 47 -201
43 -11 -1 -40 -3 -65 -5z"/>
<path d="M32842 20808 c1 -629 3 -1123 5 -1098 10 142 39 410 78 745 25 209
52 465 60 568 18 222 19 676 2 822 l-12 100 -67 3 -68 3 2 -1143z"/>
<path d="M11540 21100 c-107 -5 -449 -18 -760 -31 -311 -12 -568 -25 -572 -28
-4 -3 20 -41 54 -84 l61 -77 136 0 c75 0 424 5 776 11 718 12 657 4 701 91
l24 47 -52 37 c-61 45 -70 46 -368 34z"/>
<path d="M14650 21007 c0 -18 50 -559 53 -577 1 -8 15 6 32 34 l28 49 61 -6
c34 -4 78 -11 99 -17 l38 -11 -6 -267 c-5 -169 -3 -313 4 -392 15 -170 61
-610 67 -637 4 -21 10 -23 70 -23 43 0 66 4 69 13 2 6 11 165 20 352 20 403
53 1079 54 1083 1 1 350 2 776 2 l775 0 0 205 0 205 -1070 0 c-869 0 -1070 -2
-1070 -13z"/>
<path d="M38220 20960 c-140 -26 -577 -107 -970 -180 -393 -73 -716 -133 -718
-135 -7 -7 21 -105 31 -105 10 0 1283 235 1682 311 88 16 187 35 220 41 33 6
64 14 68 18 5 4 5 28 2 54 -7 42 -10 46 -34 45 -14 -1 -141 -23 -281 -49z"/>
<path d="M10620 19960 l0 -650 64 0 c36 0 67 4 71 9 3 5 -17 291 -45 634 -27
344 -50 632 -50 641 0 9 -8 16 -20 16 -20 0 -20 -7 -20 -650z"/>
<path d="M11605 20571 c-3 -6 -40 -34 -82 -62 -92 -63 -150 -114 -168 -150
-26 -49 -37 -248 -30 -516 l7 -252 67 -6 c36 -3 104 -10 151 -15 102 -12 170
-13 170 -2 0 4 14 102 31 217 37 258 49 512 27 565 -9 20 -46 76 -83 125 -84
112 -81 109 -90 96z"/>
<path d="M16757 20483 c-101 -154 -177 -343 -212 -528 -24 -123 -16 -346 15
-460 30 -111 120 -293 120 -243 0 7 14 146 30 308 85 824 100 983 96 987 -2 2
-24 -27 -49 -64z"/>
<path d="M15450 20325 c0 -78 2 -85 20 -85 20 0 20 -7 20 -405 l0 -405 40 0
40 0 0 405 c0 398 0 405 20 405 17 0 20 7 20 45 l0 45 45 0 45 0 0 40 0 40
-125 0 -125 0 0 -85z"/>
<path d="M12055 20328 c-25 -181 -63 -623 -53 -629 10 -7 110 -21 114 -16 5 5
94 614 94 640 0 22 -6 26 -42 32 -24 3 -57 9 -75 12 -31 5 -32 4 -38 -39z"/>
<path d="M16140 20058 c-1 -233 -13 -401 -35 -488 -62 -238 -219 -349 -521
-368 l-102 -7 39 -65 c21 -36 43 -66 48 -68 13 -4 388 91 478 122 40 14 99 37
132 51 90 41 96 62 96 330 0 215 -10 307 -47 470 -23 100 -65 215 -79 215 -5
0 -9 -86 -9 -192z"/>
<path d="M25300 19485 l0 -565 -22 -4 c-13 -3 -67 -8 -120 -11 l-97 -7 20 -41
c36 -71 31 -71 142 -2 123 77 162 113 171 157 4 18 10 259 13 536 l5 502 -56
0 -56 0 0 -565z"/>
<path d="M11345 19109 c-6 -18 -145 -628 -145 -639 0 -5 50 -11 111 -12 l111
-3 -51 -70 c-28 -38 -51 -72 -51 -76 0 -3 26 -2 58 3 169 26 240 72 278 181
26 74 35 231 24 427 -5 101 -11 184 -12 185 -2 2 -74 6 -160 10 -129 6 -159 5
-163 -6z"/>
<path d="M16530 18757 c-3 -13 -57 -963 -55 -965 1 -2 34 -6 72 -9 l70 -6 6
54 c11 94 61 909 56 913 -4 3 -149 16 -149 13z"/>
<path d="M16157 18625 c-12 -56 -46 -330 -52 -426 -12 -195 -49 -280 -141
-325 -54 -26 -58 -27 -179 -20 -110 6 -133 4 -211 -16 -86 -23 -87 -23 -48
-30 61 -11 284 -9 370 3 270 37 356 167 325 487 -17 173 -55 368 -64 327z"/>
<path d="M11215 17698 c-6 -22 -68 -579 -64 -583 2 -2 29 -5 59 -7 l55 -3 3
196 2 196 41 12 c23 7 47 15 54 17 8 3 44 -66 105 -205 51 -116 96 -211 100
-211 3 0 25 44 47 98 111 262 115 392 16 453 -49 31 -156 49 -291 49 -89 0
-124 -3 -127 -12z"/>
<path d="M16108 17330 c-24 -52 -73 -155 -108 -228 l-64 -133 -202 208 -203
208 0 -446 -1 -446 78 -7 c42 -3 136 -7 207 -7 170 -1 223 17 310 105 34 34
69 79 79 101 37 78 31 201 -28 590 l-23 150 -45 -95z"/>
<path d="M10070 16470 l0 -30 920 0 920 0 0 30 0 30 -920 0 -920 0 0 -30z"/>
<path d="M14597 16153 c-4 -3 -7 -19 -7 -35 l0 -28 955 0 955 0 0 35 0 35
-948 0 c-522 0 -952 -3 -955 -7z"/>
<path d="M25159 13115 c-1 -3 -2 -8 -3 -13 0 -4 -40 -54 -87 -112 -81 -100
-239 -307 -239 -314 0 -6 60 -29 64 -25 1 2 49 61 106 132 72 90 108 126 119
122 9 -2 134 -33 279 -69 230 -56 270 -68 318 -100 l55 -37 -3 27 c-3 24 -10
30 -56 41 -34 9 -98 43 -185 100 -72 47 -183 119 -245 160 -62 40 -110 78
-107 83 3 6 1 10 -4 10 -6 0 -12 -2 -12 -5z"/>
<path d="M25445 12154 c-154 -18 -286 -33 -293 -33 -8 -1 -5 -11 10 -31 18
-26 23 -48 28 -152 4 -68 10 -131 15 -141 11 -27 58 -47 108 -47 l45 0 161
184 c198 227 214 246 210 249 -2 1 -130 -12 -284 -29z"/>
<path d="M32895 11568 c-15 -41 -77 -388 -94 -523 -35 -281 -44 -510 -38 -935
4 -217 12 -474 18 -570 14 -217 14 -815 0 -1050 -24 -413 -73 -1168 -77 -1207
l-5 -43 -50 0 -49 0 0 1975 c0 1430 -3 1975 -11 1975 -6 0 -26 -15 -45 -34
l-34 -34 0 -138 c-1 -77 -5 -348 -10 -604 -19 -964 -24 -2241 -10 -2799 13
-534 13 -535 -9 -705 -48 -367 -55 -462 -43 -588 19 -189 78 -346 183 -484 89
-118 94 -134 93 -319 0 -131 -6 -194 -32 -350 -17 -104 -37 -237 -44 -294
l-12 -105 -102 109 -102 108 -6 -39 c-3 -21 -13 -140 -21 -264 -8 -124 -18
-251 -21 -283 -6 -58 -6 -58 -37 -55 -24 2 -36 11 -53 41 -11 20 -23 35 -26
32 -6 -7 -309 -55 -342 -55 -18 0 -26 11 -44 68 -29 89 -71 155 -123 189 -34
23 -56 28 -116 31 -95 5 -136 -5 -322 -85 -212 -90 -296 -106 -506 -100 -168
5 -342 32 -527 82 -335 91 -318 88 -433 88 -99 0 -120 -3 -210 -34 -89 -30
-112 -34 -205 -34 -93 0 -112 3 -160 26 -81 39 -135 91 -169 162 -38 81 -46
124 -23 129 9 2 -147 9 -348 16 -201 7 -853 30 -1449 52 -597 22 -1086 39
-1087 37 -2 -1 -6 -26 -10 -55 -5 -41 -4 -52 7 -52 22 0 598 -69 794 -95 386
-52 800 -111 1540 -220 1468 -217 1968 -285 2650 -359 531 -58 1166 -108 1548
-122 l187 -7 0 3766 c0 2072 -2 3767 -5 3767 -3 0 -8 -6 -10 -12z"/>
<path d="M27915 8373 c-159 -112 -291 -207 -292 -211 -2 -4 7 -19 20 -33 l22
-27 380 63 c537 88 526 86 523 94 -3 7 -143 131 -303 267 l-60 51 -290 -204z"/>
<path d="M31348 8107 c-87 -39 -158 -73 -158 -76 0 -4 84 -34 188 -69 103 -34
192 -66 199 -70 9 -6 9 -18 2 -48 -10 -39 -14 -42 -127 -98 -80 -40 -112 -60
-102 -66 8 -4 112 -31 230 -60 118 -29 218 -56 223 -59 6 -6 -337 -196 -354
-196 -4 0 -33 36 -66 80 -162 219 -323 289 -478 210 -32 -16 -60 -35 -62 -40
-4 -12 218 -215 281 -258 115 -78 203 -106 456 -142 96 -14 179 -27 185 -29 5
-1 16 -40 25 -87 l16 -84 42 65 c69 107 94 164 99 233 7 82 -12 150 -83 292
-74 150 -327 570 -345 572 -8 1 -85 -30 -171 -70z"/>
<path d="M24272 5918 c-112 -300 -103 -490 28 -618 93 -91 189 -127 525 -199
347 -74 360 -76 497 -61 l118 13 0 47 0 47 -117 22 c-246 47 -392 70 -518 80
-142 12 -208 27 -271 59 -72 37 -114 106 -114 187 0 43 27 148 51 206 l21 49
235 0 234 0 -3 47 -3 47 -300 57 c-165 32 -314 60 -332 64 -30 5 -32 4 -51
-47z"/>
<path d="M29450 4790 c190 -32 372 -61 406 -65 l61 -7 7 47 c12 95 60 85 -406
84 l-413 -1 345 -58z"/>
</g>
</svg>
